<?xml version="1.0" encoding="UTF-8" standalone="no"?>
<!-- Created with Inkscape (http://www.inkscape.org/) -->

<svg
   xmlns:dc="http://purl.org/dc/elements/1.1/"
   xmlns:cc="http://creativecommons.org/ns#"
   xmlns:rdf="http://www.w3.org/1999/02/22-rdf-syntax-ns#"
   xmlns:svg="http://www.w3.org/2000/svg"
   xmlns="http://www.w3.org/2000/svg"
   version="1.1"
   width="720"
   height="720"
   id="svg2">
  <defs
     id="defs4" />
  <metadata
     id="metadata7">
    <rdf:RDF>
      <cc:Work
         rdf:about="">
        <dc:format>image/svg+xml</dc:format>
        <dc:type
           rdf:resource="http://purl.org/dc/dcmitype/StillImage" />
        <dc:title></dc:title>
      </cc:Work>
    </rdf:RDF>
  </metadata>
  <g
     transform="translate(0,-332.36)"
     id="layer1"
     style="display:inline">
    <path
       d="m 0,362.36 0,30 30,0 0,30 30,0 0,-30 30,0 0,-30 -30,0 0,-30 -30,0 0,30 z"
       id="path3118"
       style="fill:#000000;fill-opacity:1;fill-rule:nonzero;stroke:none" />
    <path
       d="m 90,392.36 0,30 30,0 0,30 30,0 0,-30 30,0 0,-30 -30,0 0,-30 -30,0 0,30 z"
       id="path3120"
       style="fill:#000000;fill-opacity:1;fill-rule:nonzero;stroke:none" />
    <path
       d="m 120,302.36 0,30 30,0 0,30 30,0 0,-30 30,0 0,-30 -30,0 0,-30 -30,0 0,30 z"
       id="path3122"
       style="fill:#000000;fill-opacity:1;fill-rule:nonzero;stroke:none" />
    <path
       d="m 210,332.36 0,30 30,0 0,30 30,0 0,-30 30,0 0,-30 -30,0 0,-30 -30,0 0,30 z"
       id="path3124"
       style="fill:#000000;fill-opacity:1;fill-rule:nonzero;stroke:none" />
    <path
       d="m 180,422.36 0,30 30,0 0,30 30,0 0,-30 30,0 0,-30 -30,0 0,-30 -30,0 0,30 z"
       id="path3126"
       style="fill:#000000;fill-opacity:1;fill-rule:nonzero;stroke:none" />
    <path
       d="m 270,452.36 0,30 30,0 0,30 30,0 0,-30 30,0 0,-30 -30,0 0,-30 -30,0 0,30 z"
       id="path3128"
       style="fill:#000000;fill-opacity:1;fill-rule:nonzero;stroke:none" />
    <path
       d="m 300,362.36 0,30 30,0 0,30 30,0 0,-30 30,0 0,-30 -30,0 0,-30 -30,0 0,30 z"
       id="path3130"
       style="fill:#000000;fill-opacity:1;fill-rule:nonzero;stroke:none" />
    <path
       d="m 390,392.36 0,30 30,0 0,30 30,0 0,-30 30,0 0,-30 -30,0 0,-30 -30,0 0,30 z"
       id="path3132"
       style="fill:#000000;fill-opacity:1;fill-rule:nonzero;stroke:none" />
    <path
       d="m 480,422.36 0,30 30,0 0,30 30,0 0,-30 30,0 0,-30 -30,0 0,-30 -30,0 0,30 z"
       id="path3134"
       style="fill:#000000;fill-opacity:1;fill-rule:nonzero;stroke:none" />
    <path
       d="m 570,452.36 0,30 30,0 0,30 30,0 0,-30 30,0 0,-30 -30,0 0,-30 -30,0 0,30 z"
       id="path3136"
       style="fill:#000000;fill-opacity:1;fill-rule:nonzero;stroke:none" />
    <path
       d="m 660,482.36 0,30 30,0 0,30 30,0 0,-30 30,0 0,-30 -30,0 0,-30 -30,0 0,30 z"
       id="path3138"
       style="fill:#000000;fill-opacity:1;fill-rule:nonzero;stroke:none" />
    <path
       d="m 480,422.36 0,30 30,0 0,30 30,0 0,-30 30,0 0,-30 -30,0 0,-30 -30,0 0,30 z"
       id="path3142"
       style="fill:#000000;fill-opacity:1;fill-rule:nonzero;stroke:none" />
    <path
       d="m 360,482.36 0,30 30,0 0,30 30,0 0,-30 30,0 0,-30 -30,0 0,-30 -30,0 0,30 z"
       id="path3148"
       style="fill:#000000;fill-opacity:1;fill-rule:nonzero;stroke:none" />
    <path
       d="m 450,512.36 0,30 30,0 0,30 30,0 0,-30 30,0 0,-30 -30,0 0,-30 -30,0 0,30 z"
       id="path3150"
       style="fill:#000000;fill-opacity:1;fill-rule:nonzero;stroke:none" />
    <path
       d="m 540,542.36 0,30 30,0 0,30 30,0 0,-30 30,0 0,-30 -30,0 0,-30 -30,0 0,30 z"
       id="path3152"
       style="fill:#000000;fill-opacity:1;fill-rule:nonzero;stroke:none" />
    <path
       d="m 630,572.36 0,30 30,0 0,30 30,0 0,-30 30,0 0,-30 -30,0 0,-30 -30,0 0,30 z"
       id="path3154"
       style="fill:#000000;fill-opacity:1;fill-rule:nonzero;stroke:none" />
    <path
       d="m -60,542.36 0,30 30,0 0,30 30,0 0,-30 30,0 0,-30 -30,0 0,-30 -30,0 0,30 z"
       id="path3123"
       style="fill:#000000;fill-opacity:1;fill-rule:nonzero;stroke:none" />
    <path
       d="m 30,572.36 0,30 30,0 0,30 30,0 0,-30 30,0 0,-30 -30,0 0,-30 -30,0 0,30 z"
       id="path3125"
       style="fill:#000000;fill-opacity:1;fill-rule:nonzero;stroke:none" />
    <path
       d="m 60,482.36 0,30 30,0 0,30 30,0 0,-30 30,0 0,-30 -30,0 0,-30 -30,0 0,30 z"
       id="path3127"
       style="fill:#000000;fill-opacity:1;fill-rule:nonzero;stroke:none" />
    <path
       d="m 150,512.36 0,30 30,0 0,30 30,0 0,-30 30,0 0,-30 -30,0 0,-30 -30,0 0,30 z"
       id="path3129"
       style="fill:#000000;fill-opacity:1;fill-rule:nonzero;stroke:none" />
    <path
       d="m 120,602.36 0,30 30,0 0,30 30,0 0,-30 30,0 0,-30 -30,0 0,-30 -30,0 0,30 z"
       id="path3131"
       style="fill:#000000;fill-opacity:1;fill-rule:nonzero;stroke:none" />
    <path
       d="m 210,632.36 0,30 30,0 0,30 30,0 0,-30 30,0 0,-30 -30,0 0,-30 -30,0 0,30 z"
       id="path3133"
       style="fill:#000000;fill-opacity:1;fill-rule:nonzero;stroke:none" />
    <path
       d="m 240,542.36 0,30 30,0 0,30 30,0 0,-30 30,0 0,-30 -30,0 0,-30 -30,0 0,30 z"
       id="path3135"
       style="fill:#000000;fill-opacity:1;fill-rule:nonzero;stroke:none" />
    <path
       d="m 330,572.36 0,30 30,0 0,30 30,0 0,-30 30,0 0,-30 -30,0 0,-30 -30,0 0,30 z"
       id="path3137"
       style="fill:#000000;fill-opacity:1;fill-rule:nonzero;stroke:none" />
    <path
       d="m 420,602.36 0,30 30,0 0,30 30,0 0,-30 30,0 0,-30 -30,0 0,-30 -30,0 0,30 z"
       id="path3139"
       style="fill:#000000;fill-opacity:1;fill-rule:nonzero;stroke:none" />
    <path
       d="m 510,632.36 0,30 30,0 0,30 30,0 0,-30 30,0 0,-30 -30,0 0,-30 -30,0 0,30 z"
       id="path3141"
       style="fill:#000000;fill-opacity:1;fill-rule:nonzero;stroke:none" />
    <path
       d="m 600,662.36 0,30 30,0 0,30 30,0 0,-30 30,0 0,-30 -30,0 0,-30 -30,0 0,30 z"
       id="path3143"
       style="fill:#000000;fill-opacity:1;fill-rule:nonzero;stroke:none" />
    <path
       d="m 420,602.36 0,30 30,0 0,30 30,0 0,-30 30,0 0,-30 -30,0 0,-30 -30,0 0,30 z"
       id="path3145"
       style="fill:#000000;fill-opacity:1;fill-rule:nonzero;stroke:none" />
    <path
       d="m 300,662.36 0,30 30,0 0,30 30,0 0,-30 30,0 0,-30 -30,0 0,-30 -30,0 0,30 z"
       id="path3147"
       style="fill:#000000;fill-opacity:1;fill-rule:nonzero;stroke:none" />
    <path
       d="m 390,692.36 0,30 30,0 0,30 30,0 0,-30 30,0 0,-30 -30,0 0,-30 -30,0 0,30 z"
       id="path3149"
       style="fill:#000000;fill-opacity:1;fill-rule:nonzero;stroke:none" />
    <path
       d="m 480,722.36 0,30 30,0 0,30 30,0 0,-30 30,0 0,-30 -30,0 0,-30 -30,0 0,30 z"
       id="path3151"
       style="fill:#000000;fill-opacity:1;fill-rule:nonzero;stroke:none" />
    <path
       d="m 570,752.36 0,30 30,0 0,30 30,0 0,-30 30,0 0,-30 -30,0 0,-30 -30,0 0,30 z"
       id="path3153"
       style="fill:#000000;fill-opacity:1;fill-rule:nonzero;stroke:none" />
    <path
       d="m 630,872.36 0,30 30,0 0,30 30,0 0,-30 30,0 0,-30 -30,0 0,-30 -30,0 0,30 z"
       id="path3157"
       style="fill:#000000;fill-opacity:1;fill-rule:nonzero;stroke:none" />
    <path
       d="m -30,752.36 0,30 30,0 0,30 30,0 0,-30 30,0 0,-30 -30,0 0,-30 -30,0 0,30 z"
       id="path3159"
       style="fill:#000000;fill-opacity:1;fill-rule:nonzero;stroke:none" />
    <path
       d="m 0,662.36 0,30 30,0 0,30 30,0 0,-30 30,0 0,-30 -30,0 0,-30 -30,0 0,30 z"
       id="path3161"
       style="fill:#000000;fill-opacity:1;fill-rule:nonzero;stroke:none" />
    <path
       d="m 90,692.36 0,30 30,0 0,30 30,0 0,-30 30,0 0,-30 -30,0 0,-30 -30,0 0,30 z"
       id="path3163"
       style="fill:#000000;fill-opacity:1;fill-rule:nonzero;stroke:none" />
    <path
       d="m 60,782.36 0,30 30,0 0,30 30,0 0,-30 30,0 0,-30 -30,0 0,-30 -30,0 0,30 z"
       id="path3165"
       style="fill:#000000;fill-opacity:1;fill-rule:nonzero;stroke:none" />
    <path
       d="m 150,812.36 0,30 30,0 0,30 30,0 0,-30 30,0 0,-30 -30,0 0,-30 -30,0 0,30 z"
       id="path3167"
       style="fill:#000000;fill-opacity:1;fill-rule:nonzero;stroke:none" />
    <path
       d="m 180,722.36 0,30 30,0 0,30 30,0 0,-30 30,0 0,-30 -30,0 0,-30 -30,0 0,30 z"
       id="path3169"
       style="fill:#000000;fill-opacity:1;fill-rule:nonzero;stroke:none" />
    <path
       d="m 270,752.36 0,30 30,0 0,30 30,0 0,-30 30,0 0,-30 -30,0 0,-30 -30,0 0,30 z"
       id="path3171"
       style="fill:#000000;fill-opacity:1;fill-rule:nonzero;stroke:none" />
    <path
       d="m 360,782.36 0,30 30,0 0,30 30,0 0,-30 30,0 0,-30 -30,0 0,-30 -30,0 0,30 z"
       id="path3173"
       style="fill:#000000;fill-opacity:1;fill-rule:nonzero;stroke:none" />
    <path
       d="m 450,812.36 0,30 30,0 0,30 30,0 0,-30 30,0 0,-30 -30,0 0,-30 -30,0 0,30 z"
       id="path3175"
       style="fill:#000000;fill-opacity:1;fill-rule:nonzero;stroke:none" />
    <path
       d="m 540,842.36 0,30 30,0 0,30 30,0 0,-30 30,0 0,-30 -30,0 0,-30 -30,0 0,30 z"
       id="path3177"
       style="fill:#000000;fill-opacity:1;fill-rule:nonzero;stroke:none" />
    <path
       d="m 360,782.36 0,30 30,0 0,30 30,0 0,-30 30,0 0,-30 -30,0 0,-30 -30,0 0,30 z"
       id="path3179"
       style="fill:#000000;fill-opacity:1;fill-rule:nonzero;stroke:none" />
    <path
       d="m 240,842.36 0,30 30,0 0,30 30,0 0,-30 30,0 0,-30 -30,0 0,-30 -30,0 0,30 z"
       id="path3181"
       style="fill:#000000;fill-opacity:1;fill-rule:nonzero;stroke:none" />
    <path
       d="m 330,872.36 0,30 30,0 0,30 30,0 0,-30 30,0 0,-30 -30,0 0,-30 -30,0 0,30 z"
       id="path3183"
       style="fill:#000000;fill-opacity:1;fill-rule:nonzero;stroke:none" />
    <path
       d="m 420,902.36 0,30 30,0 0,30 30,0 0,-30 30,0 0,-30 -30,0 0,-30 -30,0 0,30 z"
       id="path3185"
       style="fill:#000000;fill-opacity:1;fill-rule:nonzero;stroke:none" />
    <path
       d="m 510,932.36 0,30 30,0 0,30 30,0 0,-30 30,0 0,-30 -30,0 0,-30 -30,0 0,30 z"
       id="path3187"
       style="fill:#000000;fill-opacity:1;fill-rule:nonzero;stroke:none" />
    <path
       d="m -60,842.36 0,30 30,0 0,30 30,0 0,-30 30,0 0,-30 -30,0 0,-30 -30,0 0,30 z"
       id="path3191"
       style="fill:#000000;fill-opacity:1;fill-rule:nonzero;stroke:none" />
    <path
       d="m 0,962.36 0,30 30,0 0,30 30,0 0,-30 30,0 0,-30 -30,0 0,-30 -30,0 0,30 z"
       id="path3193"
       style="fill:#000000;fill-opacity:1;fill-rule:nonzero;stroke:none" />
    <path
       d="m 30,872.36 0,30 30,0 0,30 30,0 0,-30 30,0 0,-30 -30,0 0,-30 -30,0 0,30 z"
       id="path3195"
       style="fill:#000000;fill-opacity:1;fill-rule:nonzero;stroke:none" />
    <path
       d="m 120,902.36 0,30 30,0 0,30 30,0 0,-30 30,0 0,-30 -30,0 0,-30 -30,0 0,30 z"
       id="path3197"
       style="fill:#000000;fill-opacity:1;fill-rule:nonzero;stroke:none" />
    <path
       d="m 90,992.36 0,30 30,0 0,30 30,0 0,-30 30,0 0,-30 -30,0 0,-30 -30,0 0,30 z"
       id="path3199"
       style="fill:#000000;fill-opacity:1;fill-rule:nonzero;stroke:none" />
    <path
       d="m 180,1022.36 0,30 30,0 0,30 30,0 0,-30 30,0 0,-30 -30,0 0,-30 -30,0 0,30 z"
       id="path3201"
       style="fill:#000000;fill-opacity:1;fill-rule:nonzero;stroke:none" />
    <path
       d="m 210,932.36 0,30 30,0 0,30 30,0 0,-30 30,0 0,-30 -30,0 0,-30 -30,0 0,30 z"
       id="path3203"
       style="fill:#000000;fill-opacity:1;fill-rule:nonzero;stroke:none" />
    <path
       d="m 300,962.36 0,30 30,0 0,30 30,0 0,-30 30,0 0,-30 -30,0 0,-30 -30,0 0,30 z"
       id="path3205"
       style="fill:#000000;fill-opacity:1;fill-rule:nonzero;stroke:none" />
    <path
       d="m 390,992.36 0,30 30,0 0,30 30,0 0,-30 30,0 0,-30 -30,0 0,-30 -30,0 0,30 z"
       id="path3207"
       style="fill:#000000;fill-opacity:1;fill-rule:nonzero;stroke:none" />
    <path
       d="m 480,1022.36 0,30 30,0 0,30 30,0 0,-30 30,0 0,-30 -30,0 0,-30 -30,0 0,30 z"
       id="path3209"
       style="fill:#000000;fill-opacity:1;fill-rule:nonzero;stroke:none" />
    <path
       d="m 570,1052.36 0,30 30,0 0,30 30,0 0,-30 30,0 0,-30 -30,0 0,-30 -30,0 0,30 z"
       id="path3211"
       style="fill:#000000;fill-opacity:1;fill-rule:nonzero;stroke:none" />
    <path
       d="m 390,992.36 0,30 30,0 0,30 30,0 0,-30 30,0 0,-30 -30,0 0,-30 -30,0 0,30 z"
       id="path3213"
       style="fill:#000000;fill-opacity:1;fill-rule:nonzero;stroke:none" />
    <path
       d="m 270,1052.36 0,30 30,0 0,30 30,0 0,-30 30,0 0,-30 -30,0 0,-30 -30,0 0,30 z"
       id="path3215"
       style="fill:#000000;fill-opacity:1;fill-rule:nonzero;stroke:none" />
    <path
       d="m 690,692.36 0,30 30,0 0,30 30,0 0,-30 30,0 0,-30 -30,0 0,-30 -30,0 0,30 z"
       id="path3217"
       style="fill:#000000;fill-opacity:1;fill-rule:nonzero;stroke:none" />
    <path
       d="m 660,782.36 0,30 30,0 0,30 30,0 0,-30 30,0 0,-30 -30,0 0,-30 -30,0 0,30 z"
       id="path3219"
       style="fill:#000000;fill-opacity:1;fill-rule:nonzero;stroke:none" />
    <path
       d="m 600,962.36 0,30 30,0 0,30 30,0 0,-30 30,0 0,-30 -30,0 0,-30 -30,0 0,30 z"
       id="path3221"
       style="fill:#000000;fill-opacity:1;fill-rule:nonzero;stroke:none" />
    <path
       d="m -30,452.36 0,30 30,0 0,30 30,0 0,-30 30,0 0,-30 -30,0 0,-30 -30,0 0,30 z"
       id="path3287"
       style="fill:#000000;fill-opacity:1;fill-rule:nonzero;stroke:none" />
    <path
       d="m 420,302.36 0,30 30,0 0,30 30,0 0,-30 30,0 0,-30 -30,0 0,-30 -30,0 0,30 z"
       id="path3289"
       style="fill:#000000;fill-opacity:1;fill-rule:nonzero;stroke:none" />
    <path
       d="m 510,332.36 0,30 30,0 0,30 30,0 0,-30 30,0 0,-30 -30,0 0,-30 -30,0 0,30 z"
       id="path3291"
       style="fill:#000000;fill-opacity:1;fill-rule:nonzero;stroke:none" />
    <path
       d="m 600,362.36 0,30 30,0 0,30 30,0 0,-30 30,0 0,-30 -30,0 0,-30 -30,0 0,30 z"
       id="path3293"
       style="fill:#000000;fill-opacity:1;fill-rule:nonzero;stroke:none" />
    <path
       d="m 690,392.36 0,30 30,0 0,30 30,0 0,-30 30,0 0,-30 -30,0 0,-30 -30,0 0,30 z"
       id="path3295"
       style="fill:#000000;fill-opacity:1;fill-rule:nonzero;stroke:none" />
    <path
       d="m 690,992.36 0,30 30,0 0,30 30,0 0,-30 30,0 0,-30 -30,0 0,-30 -30,0 0,30 z"
       id="path3297"
       style="fill:#000000;fill-opacity:1;fill-rule:nonzero;stroke:none" />
  </g>
</svg>
