<?xml version="1.0" encoding="UTF-8" standalone="no"?>
<svg id="svg25258" xmlns:rdf="http://www.w3.org/1999/02/22-rdf-syntax-ns#" xmlns="http://www.w3.org/2000/svg" height="1121.5" viewBox="0 0 1121.4805 1121.4759" width="1121.5" version="1.1" xmlns:cc="http://creativecommons.org/ns#" xmlns:xlink="http://www.w3.org/1999/xlink" xmlns:dc="http://purl.org/dc/elements/1.1/">
<defs id="defs5268">
<clipPath id="clipPath17586" clipPathUnits="userSpaceOnUse">
<rect id="rect17588" transform="rotate(45)" height="1121.5" width="1121.5" y="-560.74" x="560.74" fill="#00b700"/>
</clipPath>
</defs>
<g id="g6360" clip-path="url(#clipPath17586)" transform="matrix(.70711 -.70711 .70711 .70711 -560.74 560.74)">
<g id="g5814" transform="matrix(.32620 0 0 .32770 -197.99 -197.98)">
<rect id="rect5812" height="588.03" width="587.17" y="13.727" x="16.745" fill="#fff"/>
<path id="path25268" d="m0 305.16v-305.16h306.56 306.56v305.16 305.16h-306.56-306.56v-305.16zm126.56 281.64c7.1453-0.96869 8.1156-1.2277 16.406-4.3796 34.597-13.153 46.285-67.804 19.848-92.807-18.625-17.614-34.633 0.31114-17.206 19.267 8.0217 8.7256 10.008 15.117 8.0569 25.927-2.2354 12.387-7.7941 19.63-20.444 26.638-40.69 22.542-93.469-30.985-85.091-86.298 3.1841-21.023 3.5966-24.658 3.6285-31.975 0.07004-16.04-20.045-15.338-22.212 0.7743-0.34394 2.5577-1.2038 7.3926-1.9107 10.744-5.4083 25.64-5.579 39.319-0.74898 60 0.78277 3.3516 1.7878 7.8738 2.2334 10.049 4.6381 22.645 44.885 60.683 64.853 61.294 1.6805 0.0514 4.1101 0.4033 5.3992 0.78202 3.5994 1.0575 19.335 1.0477 27.188-0.017zm72.418-1.8513c27.477-9.0462 43.45-35.85 24.498-41.112-6.0368-1.6762-6.7673-1.3283-15.347 7.3093-8.602 8.6595-13.866 11.899-22.909 14.097-10.262 2.4942-14.232 8.7792-10.792 17.084 1.9873 4.7976 14.033 6.0842 24.55 2.6219zm195.71-4.94c40.555-6.6306 74.379-27.779 88.191-55.14 8.7813-17.396 13.097-20.289 19.733-13.228 5.9566 6.3377 9.8148 15.931 8.8738 22.065-5.0628 33.003-5.0683 35.357-0.0927 40.031 2.8735 2.6995 15.305 5.009 20.283 3.7682 21.855-5.4476 36.369-20.142 44.305-44.855 1.2683-3.9497 3.6056-10.872 5.1942-15.383 1.5885-4.5108 2.8882-9.8622 2.8882-11.892 0-2.0299 0.45769-4.8784 1.0171-6.3299 1.129-2.9294 3.2649-19.165 4.7873-36.389 1.6288-18.428 1.3502-57.943-0.45599-64.688-0.82857-3.0938-2.1842-8.9292-3.0125-12.968-1.9262-9.391-11.255-31.253-15.833-37.103-8.6316-11.031-31.23-4.8958-35.708 9.6944-2.1866 7.1243-0.32002 22.682 3.2696 27.252 1.8208 2.3177 11.261 21.262 13.549 27.188 1.3932 3.6094 3.3015 8.4609 4.2408 10.781 6.0221 14.876 5.3314 66.969-0.93227 70.321-8.8856 4.7554-12.484-3.6615-8.5014-19.883 4.9821-20.29-1.1787-47.535-11.747-51.951-11.336-4.7363-20.46 2.6766-32.486 26.394-1.2968 2.5574-3.2402 5.4471-4.3187 6.4217-1.0785 0.97456-4.7243 5.8834-8.1018 10.909-19.507 29.023-58.183 51.432-73.577 42.632-5.4972-3.1425-10.729-0.90045-23.826 10.21-6.8063 5.7739-10.136 6.6027-10.695 2.6622-0.45368-3.1966 7.7988-13.32 15.618-19.159 2.7518-2.0548 7.6032-6.1215 10.781-9.037 11.866-10.886 22.664-21.283 23.519-22.645 0.48585-0.77344 2.011-2.5381 3.3893-3.9215 1.3782-1.3834 4.6105-5.1933 7.1828-8.4664 2.5722-3.2731 5.7826-7.1443 7.1341-8.6026s3.811-4.8203 5.4656-7.4711 3.9135-5.8743 5.0197-7.1634c11.224-13.08 18.758-35.445 16.914-50.21-2.4467-19.582-38.959-21.889-65.848-4.1597-13.451 8.8686-18.066 5.1762-8.5707-6.8567 5.9799-7.5776 11.525-11.761 18.727-14.129 17.248-5.6709 19.833-6.1701 32.69-6.3132 18.121-0.20161 24.81-2.2588 27.092-8.3313 4.6772-12.448-1.6669-25.851-14.473-30.576-25.079-9.2538-55.277 1.3339-92.306 32.363-13.072 10.954-13.725 11.626-19.671 20.244-1.7787 2.5781-4.3392 5.9531-5.6899 7.5-8.1315 9.3122-12.819 26.91-9.49 35.625 2.8004 7.3308 8.3844 9.9729 23.121 10.94 33.791 2.2175 41.076 18.583 15.291 34.352-3.7628 2.3012-9.2467 5.6398-12.186 7.4191-2.9396 1.7793-6.9474 5.0998-8.9062 7.3788-1.9588 2.2791-5.2982 6.1444-7.4208 8.5896s-5.6555 7.61-7.8509 11.477c-2.1954 3.8672-4.8632 8.5078-5.9284 10.312-3.0513 5.1692-9.6897 19.006-13.869 28.908-6.3124 14.955-8.7578 16.763-30.551 22.586-14.378 3.8414-3.5092 21.117 15.337 24.378 22.472 3.8887 27.939 4.7813 34.066 5.5624 10.253 1.3072 43.768 0.621 54.375-1.1132zm-274.03-34.35c6.7471-4.1139 7.4377-11.439 2.2028-23.366-5.5522-12.65-3.8079-27.123 5.6062-46.516 8.6847-17.89 8.9086-27.83 0.72799-32.315-23.634-12.957-43.733 72.335-23.562 99.984 3.1296 4.2897 9.967 5.2967 15.025 2.2128zm177.67-16.21c9.0117-6.4176 14.16-15.454 22.836-40.078 5.3237-15.111 4.812-16.571-7.355-20.984-19.578-7.1012-29.495-18.992-36.84-44.172-11.581-39.702-5.3716-56.171 20.803-55.173 18.583 0.70847 20.683 0.1864 30.096-7.4852 8.205-6.6865 8.8262-7.7073 18.622-30.602 3.6831-8.6078 13.603-27.651 15.402-29.565 1.0248-1.0908 1.8632-2.4007 1.8632-2.9108 0-4.3962 25.886-19.479 33.281-19.392 2.0625 0.0244 8.236 0.36723 13.719 0.76185 26.772 1.9269 19.626-14.556-9.9659-22.985-17.869-5.0899-39.294 0.81305-46.348 12.77-7.7761 13.18-13.296 16.807-16.409 10.786-7.268-14.055-23.219-7.3589-32.117 13.482-2.0378 4.773-4.5407 15.412-7.3887 31.406-2.5484 14.312-3.6648 17.258-7.2769 19.203-7.7625 4.1804-15.405-4.4335-13.502-15.219 2.0761-11.769 11.844-36.015 17.936-44.522 2.1195-2.9598 5.9631-8.3733 8.5412-12.03 8.3735-11.877 13.579-18.145 18.082-21.771 2.4298-1.9568 6.3162-5.2174 8.6365-7.2457 5.648-4.9371 16.638-13.276 21.688-16.457 2.2513-1.418 6.9796-4.9347 10.507-7.8149 3.5277-2.8802 7.5355-5.8651 8.9062-6.6332 1.3707-0.76805 4.6016-2.706 7.1797-4.3065s9.3281-5.3464 15-8.3241 11.367-6.1537 12.656-7.0577c1.2891-0.90398 4.6161-2.7886 7.3934-4.1881 5.3642-2.703 18.512-11.907 24.874-17.414 2.1045-1.8214 5.6512-4.5376 7.8816-6.036s4.9053-3.805 5.9442-5.1259c1.0389-1.3208 4.5227-4.5109 7.7419-7.089s7.9637-6.6961 10.543-9.151c2.5797-2.4549 6.1872-5.619 8.0167-7.0312s5.9259-5.6263 9.1032-9.3646 6.1386-6.7969 6.5806-6.7969c0.44209 0 2.2153-1.837 3.9405-4.0822 12.748-16.59 16.516-19.698 18.287-15.083 0.73045 1.9035-7.3962 18.409-11.761 23.888-13.114 16.46-26.369 30.444-38.177 40.278-16.649 13.866-18.1 16.383-12.471 21.642 5.5874 5.2194 32.868 6.9727 58.251 3.7438 25.943-3.3001 7.5554 10.741-19.43 14.837-4.125 0.62614-10.148 1.5851-13.384 2.131-10.505 1.7721-31.106-0.16462-49.099-4.6159-19.554-4.8375-37.367 9.5634-28.466 23.013 3.7559 5.6756 9.8481 9.02 21.106 11.586 2.3203 0.52897 9.0703 2.0826 15 3.4526 24.22 5.5955 84.803 2.8964 100.78-4.49 5.5869-2.5827 11.706-5.0481 15.229-6.1354 18.646-5.7557 36.838-32.152 34.928-50.682-1.8564-18.015-6.6092-21.366-32.345-22.808-29.21-1.6372-36.805-11.879-13.762-18.56 13.363-3.8741 16.418-6.0269 23.066-16.257 10.991-16.913 13.684-46.159 7.0787-76.858-4.9954-23.215-13.629-28.548-30.296-18.714-4.332 2.5559-9.8264 3.0625-21.228 1.9572-30.053-2.9135-64.812 14.087-77.972 38.136-6.6751 12.199-12.64 5.4254-10.573-12.005 2.6965-22.733 1.7618-28.585-5.3942-33.768-12.035-8.7181-40.572 5.4858-51.834 25.8-5.9176 10.674-9.08 16.894-11.44 22.5-1.3022 3.0938-4.6986 10.898-7.5475 17.344-21 47.509-10.831 97.44 17.565 86.247 14.011-5.5226 17.334-17.024 10.748-37.2-5.9088-18.101 1.4213-48.746 10.937-45.725 2.6017 0.82576 3.0089 4.0316 2.4289 19.124-1.5143 39.403 25.414 41.405 69.271 5.1507 7.4678-6.1733 33.042-32.725 44.64-46.347 8.9675-10.532 15.777-12.521 19.44-5.6769 2.7768 5.1884-0.14929 9.0902-10.801 14.403-6.9425 3.4627-12.024 8.4786-21.627 21.347-12.727 17.054-23.593 27.426-41.086 39.215-2.6066 1.7567-6.3679 4.6454-8.3585 6.4192-1.9905 1.7739-4.9437 3.782-6.5625 4.4626-1.6188 0.68057-4.7326 2.538-6.9196 4.1276-2.1869 1.5896-4.1731 2.8902-4.4137 2.8902s-5.2013 3.0234-11.024 6.7186c-5.8225 3.6952-14.805 8.8757-19.961 11.512-5.1562 2.6366-11.695 6.2979-14.531 8.1363-2.8359 1.8384-6.6328 3.8972-8.4375 4.575-1.8047 0.67787-4.5737 2.1812-6.1533 3.3408s-4.3969 2.7454-6.2606 3.5241c-4.1162 1.7199-29.774 17.132-38.211 22.952-6.2726 4.3274-9.11 6.6896-19.822 16.503-3.4258 3.1383-7.2226 6.5711-8.4375 7.6282-3.0047 2.6148-7.093 7.5638-11.584 14.023-9.5545 13.742-13.416 15.444-9.2899 4.095 0.82023-2.2562 2.4582-7.5476 3.6398-11.758 1.9963-7.1138 15.733-42.635 20.605-53.281 22.411-48.974 23.295-51.894 17.461-57.728-4.8379-4.8379-16.093-1.9758-19.537 4.9683-0.58242 1.1743-2.5102 5.2991-4.2838 9.1663-1.7737 3.8672-6.6481 14.064-10.832 22.659-4.1839 8.5955-7.6071 16.136-7.6071 16.757 0 0.62069-2.4926 7.1167-5.5391 14.436-3.0465 7.3189-6.9027 17.894-8.5693 23.5-1.6666 5.6062-3.7629 11.906-4.6585 13.999-2.551 5.9622-6.4121 22.952-9.1743 40.368-2.944 18.563-5.0422 21.514-7.3322 10.312-1.0981-5.3716-2.0175-8.9924-7.1414-28.125-2.2376-8.3552-7.3735-21.193-9.5637-23.906-0.62442-0.77344-2.9451-6.0469-5.1571-11.719-7.7605-19.899-17.894-37.079-32.43-54.978-2.3629-2.9097-5.4313-6.9796-6.8186-9.0443-6.0331-8.9785-14.946-18.833-28.514-31.525-16.925-15.832-19.549-19.85-16.143-24.713 1.901-2.7141 5.4028-2.661 8.112 0.12299 1.181 1.2136 6.5717 6.3816 11.979 11.484 10.686 10.083 13.34 13 22.435 24.653 15.933 20.412 32.939 5.433 29.443-25.934-1.1801-10.589-0.21357-12.672 4.8166-10.38 5.3796 2.4511 6.2908 14.112 2.8084 35.939-1.3986 8.7656-3.3116 20.789-4.2512 26.719-3.6673 23.143-0.31871 30.938 13.291 30.938 9.3815 0 12.795-3.3981 18.361-18.281 5.4386-14.54 5.6026-67.065 0.26794-85.781-5.6099-19.682-6.7032-21.996-16.626-35.185-21.343-28.37-41.107-27.192-55.966 3.3352-4.5647 9.3787-6.1688 11.15-10.139 11.195-3.3902 0.03886-3.9984-1.7038-4.8075-13.775-2-29.783-38.18-46.21-85.293-38.698-3.1532 0.50273-11.388 1.3682-18.301 1.9233-20.136 1.617-24.075 4.7114-18.903 14.849 1.6251 3.1856 1.7609 4.9827 1.3251 17.541-1.4522 41.849 12.845 69.213 40.381 77.286 8.9304 2.6183 16.484 6.2284 16.484 7.8787 0 3.7004-6.1731 5.8808-13.879 4.9025-13.359-1.6959-42.286 7.0143-47.017 14.157-11.827 17.856 5.2614 55.87 32.263 71.77 57.164 33.662 130.57 25.862 112.98-12.003-6.6149-14.234-15.437-16.565-40.142-10.605-24.864 5.9986-48.009 2.8976-58.085-7.7822-8.1331-8.6206-4.1061-10.742 13.257-6.9826 50.603 10.95 71.763-13.05 41.703-47.29-3.8485-4.3828-7.8024-9.0234-8.7863-10.312-0.98392-1.2891-5.0433-5.5078-9.0208-9.375-14.175-13.782-16.276-23.859-7.5225-36.094 7.8036-10.908 17.068-12.398 17.068-2.7455 0 4.2715-2.468 6.5591-7.9657 7.3836-12.069 1.8098-11.667 6.1581 1.9555 21.147 14.585 16.048 29.75 35.022 40.44 50.597 3.7252 5.4276 8.8485 12.89 11.385 16.584 4.7689 6.9444 9.4146 15.418 13.793 25.159 1.3906 3.0938 5.5886 11.953 9.3289 19.688 3.7403 7.7344 8.1279 17.227 9.7504 21.094 1.6224 3.8672 3.4161 7.8616 3.986 8.8764 1.5513 2.7626 5.4221 15.656 5.4382 18.114 0.007 1.1807 0.80633 3.712 1.7747 5.625 0.96832 1.9131 2.0585 4.9548 2.4226 6.7595 0.36412 1.8047 1.9302 7.7109 3.4801 13.125 5.0884 17.774 6.3548 22.929 6.3772 25.957 0.0121 1.6438 0.69531 5.8625 1.5182 9.375 13.305 56.795 12.661 67.804-2.9475 50.364-13.15-14.69-29.48-14.5-29.48 0.35v4.67l10.903 11.127c5.9964 6.1198 11.849 12.603 13.006 14.408 1.1568 1.8047 5.14 6.6562 8.8515 10.781 3.7115 4.125 9.7768 12.553 13.478 18.728 8.5879 14.328 8.0219 13.388 12.003 19.923 1.8686 3.0674 7.8863 10.18 13.373 15.807 15.113 15.499 10.922 20.142-9.7111 10.757-4.3981-2.0004-11.756-5.2318-16.352-7.181-11.076-4.6978-31.454-16.94-43.693-26.247-6.5053-4.9473-30.75-29.403-33.265-33.554-1.0312-1.7023-3.9195-5.7982-6.4184-9.102s-5.3762-7.9054-6.394-10.226c-4.1895-9.5504-11.623-18.75-15.151-18.75-8.9863 0-13.449 4.8692-12.539 13.682 0.54233 5.2546 2.7007 9.6024 12.057 24.287 1.9711 3.0938 4.4899 7.3125 5.5974 9.375 1.1074 2.0625 4.2834 6.2083 7.0577 9.2128 2.7743 3.0046 6.4559 7.6452 8.1814 10.312 7.739 11.963 32.768 33.552 47.453 40.931 3.3516 1.6841 7.1484 3.797 8.4375 4.6953s3.3984 1.9579 4.6875 2.3547c1.2891 0.39677 4.7922 1.9034 7.7847 3.3482 2.9925 1.4447 7.0004 3.1328 8.9062 3.7514 1.9059 0.61855 9.1606 3.5504 16.122 6.5151 6.9609 2.9648 14.127 5.7033 15.924 6.0856 1.7971 0.38235 4.2335 1.3281 5.4141 2.1017 6.3695 4.1734 19.867 4.1673 25.736-0.0118zm142.66-35.473c4.9574-1.3765 23.507-18.256 33.397-30.39 2.8359-3.4796 6.6911-8.0663 8.567-10.193 3.5162-3.9858 12.048-17.205 16.383-25.383 1.3532-2.5529 3.2592-5.7223 4.2357-7.0431 9.0935-12.3 19.105-58.401 19.96-91.909 0.33697-13.215-1.8368-52.101-3.1551-56.442-1.7065-5.619-5.0093-7.5614-12.097-7.1143-11.782 0.74309-13.228 6.5364-8.3781 33.556 8.112 45.192-0.37474 96.621-21.35 129.38-11.857 18.516-15.164 23.286-20.88 30.12-5.3264 6.368-5.678 6.8097-9.9749 12.527-1.531 2.0371-5.6505 6.6694-9.1543 10.294-10.368 10.725-9.3663 15.882 2.4476 12.602zm-346.42-38.45c8.9821-3.1312 6.4408-14.031-6.3814-27.37-4.952-5.1516-10.315-11.818-12.094-15.034-1.7581-3.1782-4.3317-7.2551-5.7192-9.0598-21.173-27.539-20.967-72.592 0.40834-89.262 17.479-13.631 20.806-19.302 16.395-27.948-1.9481-3.8187-3.2298-4.478-9.8323-5.0578-8.6223-0.75723-33.106 19.909-40.205 33.936-10.741 21.224-7.6298 67.21 6.1349 90.675 0.60492 1.0312 3.1563 5.8408 5.6697 10.688 14.879 28.695 32.055 43.163 45.624 38.432zm224.47-16.18c11.199-4.6791 14.415-19.838 6.0477-28.498-12.835-13.283-29.444-6.1508-30.56 13.124-0.63057 10.888 13.715 19.886 24.513 15.374zm-140.66-37.897c1.4301-1.3604 3.1855-4.3889 3.9009-6.73 0.7154-2.3412 2.618-7.8426 4.2281-12.225 9.2569-25.199 9.2175-48.951-0.1095-65.919-1.9736-3.5905-3.5884-6.9114-3.5884-7.3799 0-4.6318-26.871-25.139-32.94-25.139-12.145 0-15.098 14.709-4.7946 23.877 24.825 22.088 29.521 37.145 19.601 62.842-8.8521 22.93-8.2331 31.575 2.3877 33.347 5.4622 0.91121 8.2358 0.25605 11.315-2.6728zm-78.444-11.06c12.306-6.5319 23.584-9.7204 40.406-11.424 12.658-1.2816 16.061-5.054 13.93-15.442-1.9358-9.4357-31.927-12.752-46.961-5.1934-1.5289 0.76872-4.7217 1.8716-7.0953 2.451-4.1228 1.0062-10.327 4.2744-18.392 9.688-7.468 5.0131-9.7398 15.886-4.4801 21.443 5.5967 5.913 9.0185 5.6824 22.593-1.5229zm19.952-50.177c8.0414-2.8033 9.352-64.596 1.4464-68.198-10.627-4.842-18.781 3.9346-20.341 21.893-3.0802 35.472 3.5258 51.662 18.894 46.305zm446.15-28.03c3.5119-2.1412 4.8585-5.0017 4.992-10.604 0.15575-6.5386 1.086-8.2391 6.4555-11.801 19.679-13.055 13.059-39.01-7.0776-27.749-5.6984 3.1868-6.6878 3.4452-11.068 2.8913-13.313-1.6835-14.493-1.6879-19.356-0.0727-8.2589 2.7432-10.404 7.0383-6.8997 13.815 2.1484 4.1546 5.9768 15.666 5.9768 17.972 0 12.065 16.804 21.75 26.976 15.548zm-516.64-36.23c16.064-7.6227 8.8506-32.031-10.347-35.015-15.77-2.451-25.721 21.249-13.889 33.081 3.5658 3.5658 18.317 4.7431 24.236 1.9342zm238.22-152.75c14.544-3.5854 14.125-3.5662 37.314-1.7112 22.64 1.8111 23.526-20.456 0.94167-23.65-17.471-2.471-27.994-1.5018-53.334 4.9127-11.646 2.9481-16.104 12.892-8.8734 19.791 5.1189 4.8841 6.6369 4.9258 23.951 0.65722zm56.552-39.579c1.7154-1.9199 2.7618-4.371 3.1532-7.3861 0.3222-2.4819 1.219-7.2695 1.9929-10.639 8.9331-38.894-34.031-65.129-70.697-43.171-15.41 9.2285-23.309 32.635-16.004 47.424 5.7369 11.615 22.007 10.956 26.603-1.0786 1.6229-4.2495 1.618-5.1633-0.11176-20.82-1.1031-9.9848 12.467-18.966 22.782-15.077 10.685 4.0283 15.409 16.127 13.461 34.473-1.9169 18.051 8.888 27.393 18.822 16.275z"/>
</g>
<g id="g6152" transform="translate(0 -.0019226)">
<use id="use5818" xlink:href="#g5814" transform="translate(197.99 197.98)" height="100%" width="100%" y="0" x="0"/>
<use id="use5820" xlink:href="#g5814" transform="matrix(1 0 0 -1 197.99 1388)" height="100%" width="100%" y="0" x="0"/>
<use id="use5822" xlink:href="#g5814" transform="translate(197.99 593.98)" height="100%" width="100%" y="0" x="0"/>
<use id="use5824" xlink:href="#g5814" transform="matrix(1 0 0 -1 197.99 992.02)" height="100%" width="100%" y="0" x="0"/>
<use id="use5826" xlink:href="#g5814" transform="translate(197.99 989.98)" height="100%" width="100%" y="0" x="0"/>
<use id="use5828" xlink:href="#g5814" transform="matrix(1 0 0 -1 197.99 596.02)" height="100%" width="100%" y="0" x="0"/>
<use id="use5830" xlink:href="#g5814" transform="translate(197.99 1386)" height="100%" width="100%" y="0" x="0"/>
<use id="use5832" xlink:href="#g5814" transform="matrix(1 0 0 -1 197.99 200.02)" height="100%" width="100%" y="0" x="0"/>
<use id="use5834" xlink:href="#g5814" transform="matrix(-1 0 0 1 1388 197.98)" height="100%" width="100%" y="0" x="0"/>
<use id="use5836" xlink:href="#g5814" transform="matrix(-1 0 0 -1 1388 1388)" height="100%" width="100%" y="0" x="0"/>
<use id="use5838" xlink:href="#g5814" transform="matrix(-1 0 0 1 1388 593.98)" height="100%" width="100%" y="0" x="0"/>
<use id="use5840" xlink:href="#g5814" transform="matrix(-1 0 0 -1 1388 992.02)" height="100%" width="100%" y="0" x="0"/>
<use id="use5842" xlink:href="#g5814" transform="matrix(-1 0 0 1 1388 989.98)" height="100%" width="100%" y="0" x="0"/>
<use id="use5844" xlink:href="#g5814" transform="matrix(-1 0 0 -1 1388 596.02)" height="100%" width="100%" y="0" x="0"/>
<use id="use5846" xlink:href="#g5814" transform="matrix(-1 0 0 1 1388 1386)" height="100%" width="100%" y="0" x="0"/>
<use id="use5848" xlink:href="#g5814" transform="matrix(-1 0 0 -1 1388 200.02)" height="100%" width="100%" y="0" x="0"/>
<use id="use5850" xlink:href="#g5814" transform="translate(593.99 197.98)" height="100%" width="100%" y="0" x="0"/>
<use id="use5852" xlink:href="#g5814" transform="matrix(1 0 0 -1 593.99 1388)" height="100%" width="100%" y="0" x="0"/>
<use id="use5854" xlink:href="#g5814" transform="translate(593.99 593.98)" height="100%" width="100%" y="0" x="0"/>
<use id="use5856" xlink:href="#g5814" transform="matrix(1 0 0 -1 593.99 992.02)" height="100%" width="100%" y="0" x="0"/>
<use id="use5858" xlink:href="#g5814" transform="translate(593.99 989.98)" height="100%" width="100%" y="0" x="0"/>
<use id="use5860" xlink:href="#g5814" transform="matrix(1 0 0 -1 593.99 596.02)" height="100%" width="100%" y="0" x="0"/>
<use id="use5862" xlink:href="#g5814" transform="translate(593.99 1386)" height="100%" width="100%" y="0" x="0"/>
<use id="use5864" xlink:href="#g5814" transform="matrix(1 0 0 -1 593.99 200.02)" height="100%" width="100%" y="0" x="0"/>
<use id="use5866" xlink:href="#g5814" transform="matrix(-1 0 0 1 992.01 197.98)" height="100%" width="100%" y="0" x="0"/>
<use id="use5868" xlink:href="#g5814" transform="matrix(-1 0 0 -1 992.01 1388)" height="100%" width="100%" y="0" x="0"/>
<use id="use5870" xlink:href="#g5814" transform="matrix(-1 0 0 1 992.01 593.98)" height="100%" width="100%" y="0" x="0"/>
<use id="use5872" xlink:href="#g5814" transform="matrix(-1 0 0 -1 992.01 992.02)" height="100%" width="100%" y="0" x="0"/>
<use id="use5874" xlink:href="#g5814" transform="matrix(-1 0 0 1 992.01 989.98)" height="100%" width="100%" y="0" x="0"/>
<use id="use5876" xlink:href="#g5814" transform="matrix(-1 0 0 -1 992.01 596.02)" height="100%" width="100%" y="0" x="0"/>
<use id="use5878" xlink:href="#g5814" transform="matrix(-1 0 0 1 992.01 1386)" height="100%" width="100%" y="0" x="0"/>
<use id="use5880" xlink:href="#g5814" transform="matrix(-1 0 0 -1 992.01 200.02)" height="100%" width="100%" y="0" x="0"/>
<use id="use5882" xlink:href="#g5814" transform="translate(989.99 197.98)" height="100%" width="100%" y="0" x="0"/>
<use id="use5884" xlink:href="#g5814" transform="matrix(1 0 0 -1 989.99 1388)" height="100%" width="100%" y="0" x="0"/>
<use id="use5886" xlink:href="#g5814" transform="translate(989.99 593.98)" height="100%" width="100%" y="0" x="0"/>
<use id="use5888" xlink:href="#g5814" transform="matrix(1 0 0 -1 989.99 992.02)" height="100%" width="100%" y="0" x="0"/>
<use id="use5890" xlink:href="#g5814" transform="translate(989.99 989.98)" height="100%" width="100%" y="0" x="0"/>
<use id="use5892" xlink:href="#g5814" transform="matrix(1 0 0 -1 989.99 596.02)" height="100%" width="100%" y="0" x="0"/>
<use id="use5894" xlink:href="#g5814" transform="translate(989.99 1386)" height="100%" width="100%" y="0" x="0"/>
<use id="use5896" xlink:href="#g5814" transform="matrix(1 0 0 -1 989.99 200.02)" height="100%" width="100%" y="0" x="0"/>
<use id="use5898" xlink:href="#g5814" transform="matrix(-1 0 0 1 596.01 197.98)" height="100%" width="100%" y="0" x="0"/>
<use id="use5900" xlink:href="#g5814" transform="matrix(-1 0 0 -1 596.01 1388)" height="100%" width="100%" y="0" x="0"/>
<use id="use5902" xlink:href="#g5814" transform="matrix(-1 0 0 1 596.01 593.98)" height="100%" width="100%" y="0" x="0"/>
<use id="use5904" xlink:href="#g5814" transform="matrix(-1 0 0 -1 596.01 992.02)" height="100%" width="100%" y="0" x="0"/>
<use id="use5906" xlink:href="#g5814" transform="matrix(-1 0 0 1 596.01 989.98)" height="100%" width="100%" y="0" x="0"/>
<use id="use5908" xlink:href="#g5814" transform="matrix(-1 0 0 -1 596.01 596.02)" height="100%" width="100%" y="0" x="0"/>
<use id="use5910" xlink:href="#g5814" transform="matrix(-1 0 0 1 596.01 1386)" height="100%" width="100%" y="0" x="0"/>
<use id="use5912" xlink:href="#g5814" transform="matrix(-1 0 0 -1 596.01 200.02)" height="100%" width="100%" y="0" x="0"/>
<use id="use5914" xlink:href="#g5814" transform="translate(1386 197.98)" height="100%" width="100%" y="0" x="0"/>
<use id="use5916" xlink:href="#g5814" transform="matrix(1 0 0 -1 1386 1388)" height="100%" width="100%" y="0" x="0"/>
<use id="use5918" xlink:href="#g5814" transform="translate(1386 593.98)" height="100%" width="100%" y="0" x="0"/>
<use id="use5920" xlink:href="#g5814" transform="matrix(1 0 0 -1 1386 992.02)" height="100%" width="100%" y="0" x="0"/>
<use id="use5922" xlink:href="#g5814" transform="translate(1386 989.98)" height="100%" width="100%" y="0" x="0"/>
<use id="use5924" xlink:href="#g5814" transform="matrix(1 0 0 -1 1386 596.02)" height="100%" width="100%" y="0" x="0"/>
<use id="use5926" xlink:href="#g5814" transform="translate(1386 1386)" height="100%" width="100%" y="0" x="0"/>
<use id="use5928" xlink:href="#g5814" transform="matrix(1 0 0 -1 1386 200.02)" height="100%" width="100%" y="0" x="0"/>
<use id="use5930" xlink:href="#g5814" transform="matrix(-1 0 0 1 200.01 197.98)" height="100%" width="100%" y="0" x="0"/>
<use id="use5932" xlink:href="#g5814" transform="matrix(-1 0 0 -1 200.01 1388)" height="100%" width="100%" y="0" x="0"/>
<use id="use5934" xlink:href="#g5814" transform="matrix(-1 0 0 1 200.01 593.98)" height="100%" width="100%" y="0" x="0"/>
<use id="use5936" xlink:href="#g5814" transform="matrix(-1 0 0 -1 200.01 992.02)" height="100%" width="100%" y="0" x="0"/>
<use id="use5938" xlink:href="#g5814" transform="matrix(-1 0 0 1 200.01 989.98)" height="100%" width="100%" y="0" x="0"/>
<use id="use5940" xlink:href="#g5814" transform="matrix(-1 0 0 -1 200.01 596.02)" height="100%" width="100%" y="0" x="0"/>
<use id="use5942" xlink:href="#g5814" transform="matrix(-1 0 0 1 200.01 1386)" height="100%" width="100%" y="0" x="0"/>
<use id="use5944" xlink:href="#g5814" transform="matrix(-1 0 0 -1 200.01 200.02)" height="100%" width="100%" y="0" x="0"/>
</g>
</g>
</svg>
