<?xml version="1.0" encoding="utf-8"?>
<!-- Generator: Adobe Illustrator 27.5.0, SVG Export Plug-In . SVG Version: 6.00 Build 0)  -->
<svg version="1.1" id="Layer_1" xmlns="http://www.w3.org/2000/svg" xmlns:xlink="http://www.w3.org/1999/xlink" x="0px" y="0px"
	 viewBox="0 0 800 800" style="enable-background:new 0 0 800 800;" xml:space="preserve">
<g>
	<polygon points="720.904,414.313 722.102,413.833 723.49,413.66 725.13,413.894 725.479,414.034 726.93,416.572 731.073,415.443 
		731.45,413.936 730.697,412.806 729.943,409.793 729.943,406.026 729.567,404.143 728.437,402.26 722.787,399.247 717.137,399.247 
		711.488,397.363 709.604,395.48 709.228,390.96 708.474,389.831 706.214,389.454 705.838,387.194 703.955,386.817 702.071,389.077 
		701.695,391.714 702.825,393.974 702.825,396.234 702.071,397.363 699.435,400.377 699.435,402.637 700.188,404.896 
		702.448,407.156 705.461,412.806 708.474,415.819 709.228,416.572 711.111,416.572 712.617,415.819 718.644,415.819 	"/>
	<polygon points="358.45,121.043 358.569,121.281 359.382,121.642 360.523,122.375 360.452,122.411 362.335,123.541 
		364.595,123.541 364.972,122.787 364.972,120.151 364.218,118.268 363.349,117.92 363.465,117.891 360.452,116.761 
		360.829,112.618 362.335,108.098 366.102,100.942 367.608,96.422 368.738,90.019 370.621,82.486 374.011,71.94 376.648,68.55 
		376.648,65.537 375.518,62.147 374.011,61.394 369.492,61.394 368.738,61.77 366.478,64.407 365.348,66.667 365.725,68.55 
		368.362,71.563 367.985,74.953 366.102,80.226 364.218,79.85 364.218,81.733 364.972,82.486 365.348,83.616 365.348,84.746 
		363.842,91.149 361.582,99.059 358.569,109.981 355.932,116.384 355.932,118.644 357.062,120.151 	"/>
	<polygon points="427.872,57.251 429.379,57.627 431.262,54.614 433.145,54.614 433.522,54.991 435.028,55.367 436.535,53.108 
		436.535,48.588 434.652,42.938 432.392,36.535 431.262,35.029 427.119,35.029 425.989,35.782 424.105,43.691 424.105,47.458 
		426.365,54.238 	"/>
	<polygon points="73.07,401.883 75.706,402.26 82.486,402.637 83.616,403.013 88.136,403.013 88.889,402.637 90.772,401.507 
		93.409,398.493 94.915,394.35 94.915,390.207 94.539,389.454 92.279,387.571 89.266,386.441 81.356,386.064 76.083,386.817 
		71.187,388.324 68.55,389.831 65.16,391.714 64.784,393.22 65.914,395.857 67.044,397.363 69.303,398.493 71.187,399.247 
		71.187,400 	"/>
	<polygon points="535.216,731.073 532.957,727.683 529.567,725.047 527.944,724.352 528.06,724.294 525.424,723.164 525,723.069 
		524.294,722.787 518.644,721.28 515.254,721.28 512.241,722.034 512.241,722.102 511.111,722.41 508.098,724.294 505.085,724.294 
		503.955,725.047 501.695,728.813 499.812,730.697 497.175,732.956 497.146,733.029 496.798,733.333 496.798,733.898 
		496.422,734.84 495.386,735.875 495.258,735.833 494.915,734.463 496.045,731.45 496.045,728.813 495.292,725.8 492.655,720.527 
		492.279,719.774 491.4,718.895 491.525,718.644 490.395,717.891 487.382,717.891 486.252,717.137 481.733,716.007 482.109,712.994 
		482.109,709.228 480.603,705.838 480.226,705.461 479.096,704.331 478.343,703.578 476.083,702.071 468.927,700.188 
		465.537,700.188 464.407,700.565 463.503,701.318 463.277,701.318 462.147,702.448 459.887,706.214 459.887,706.591 
		459.887,712.241 460.264,713.371 460.606,713.919 461.017,714.877 461.878,715.953 462.147,716.384 462.398,716.604 
		462.523,716.761 462.649,716.823 462.95,717.087 463.653,717.891 464.105,718.192 464.407,718.644 464.658,718.581 465.16,719.021 
		465.461,719.096 465.913,719.397 466.435,719.339 469.68,720.15 470.056,721.657 467.043,725.423 465.16,728.437 462.9,731.073 
		460.64,732.58 460.305,733.082 459.887,733.333 459.636,734.086 459.134,734.84 458.983,736.045 458.757,736.723 458.908,736.648 
		458.757,737.853 461.017,738.606 462.9,740.489 465.16,741.619 468.173,741.996 471.563,741.243 473.07,740.113 476.459,740.113 
		478.719,741.619 482.109,742.749 485.876,742.373 489.265,741.243 490.215,740.399 490.395,740.489 492.655,738.229 
		494.539,737.476 494.539,741.996 496.045,747.269 496.124,747.388 496.422,748.399 496.745,748.883 496.798,749.152 
		497.476,750.056 497.552,750.282 499.058,752.919 499.623,753.766 500.188,754.802 500.716,755.405 501.318,756.309 
		501.387,756.172 502.825,757.815 503.201,759.322 503.578,761.958 506.591,764.595 510.358,766.855 514.878,766.855 
		516.007,764.218 516.761,763.842 520.151,763.465 526.554,761.205 530.697,758.568 534.84,754.049 537.476,749.529 
		538.606,744.256 538.606,741.243 536.723,734.463 	"/>
	<polygon points="506.968,673.069 509.981,673.823 512.994,673.069 514.501,671.563 514.501,671.262 514.878,670.81 514.878,667.42 
		514.501,666.666 513.371,665.16 512.618,664.03 512.492,663.988 512.241,663.653 508.851,661.393 506.591,661.393 504.708,662.523 
		503.201,664.783 503.201,668.926 505.085,671.94 	"/>
	<polygon points="685.499,245.575 684.369,248.588 681.356,251.224 680.979,253.484 683.239,255.744 683.616,259.51 685.122,260.64 
		686.252,260.264 687.382,258.004 688.135,256.121 688.889,256.121 689.265,255.367 691.902,253.484 692.279,251.978 
		690.772,250.094 690.395,246.328 689.642,245.198 687.382,244.445 	"/>
	<polygon points="151.036,222.976 152.166,225.236 154.049,230.885 155.179,232.015 157.376,232.235 157.062,232.392 
		157.838,232.281 158.946,232.392 159.259,232.078 159.699,232.015 159.95,231.387 160.452,230.885 160.336,230.422 
		160.452,230.132 160.214,229.934 160.076,229.379 159.802,229.036 159.699,228.625 159.071,228.123 158.569,227.495 
		158.428,227.401 158.192,227.119 157.439,226.742 156.309,225.989 154.426,222.976 153.673,218.456 151.413,215.819 
		149.529,215.443 146.14,216.196 145.01,216.949 145.01,218.833 146.893,220.716 	"/>
	<polygon points="111.865,414.313 112.241,416.572 113.065,416.808 112.995,416.949 114.878,417.326 115.631,421.092 
		116.384,421.846 119.774,421.846 124.294,421.092 124.294,420.866 125.047,420.716 126.177,418.456 126.554,415.066 
		126.177,414.313 125.047,413.936 112.241,413.936 	"/>
	<polygon points="495.313,652.145 495.292,651.977 494.162,651.224 490.772,651.224 489.642,651.601 488.512,653.107 
		488.512,656.497 488.889,657.627 490.772,659.887 496.422,662.9 499.058,663.277 499.812,662.147 499.435,660.263 497.928,657.627 
		496.045,652.731 	"/>
	<polygon points="222.976,651.224 219.209,650.094 215.819,650.094 213.183,650.847 210.923,652.731 208.663,655.744 
		208.286,658.757 209.04,662.9 210.17,664.407 213.559,667.796 219.209,668.173 219.887,668.098 221.469,668.173 221.752,667.891 
		222.599,667.796 225.612,665.16 225.586,665.108 226.365,664.407 227.872,661.017 227.872,657.25 225.989,653.484 	"/>
	<polygon points="670.433,586.441 667.043,584.181 663.653,584.181 663.151,584.557 662.9,584.557 662.147,585.311 658.757,589.077 
		657.627,593.597 658.004,596.61 659.134,598.87 659.661,599.322 659.887,599.623 660.891,600.377 661.77,601.13 662.063,601.255 
		662.9,601.883 663.443,601.847 664.407,602.26 667.42,602.26 670.056,601.883 671.186,601.13 671.563,601.13 672.034,600.565 
		672.316,600.377 672.818,599.623 673.446,598.87 673.412,598.733 674.576,596.987 674.576,592.467 673.069,588.324 	"/>
	<polygon points="641.808,690.395 638.795,690.019 637.665,690.395 636.911,691.149 635.781,692.279 635.028,693.032 
		634.746,693.879 634.651,693.785 634.275,695.292 636.158,698.305 636.192,698.305 636.911,699.435 642.184,699.811 
		643.691,699.058 644.821,697.175 644.821,693.032 643.691,691.525 	"/>
	<polygon points="145.763,466.667 145.763,462.523 145.01,461.469 145.01,461.394 143.88,459.887 141.996,459.887 140.49,460.264 
		137.1,460.264 136.723,460.64 135.593,462.523 135.97,464.03 136.723,464.03 136.723,464.783 138.607,468.55 139.737,469.539 
		139.737,469.68 140.866,470.527 141.62,471.186 142.185,471.045 142.75,471.186 142.809,470.889 143.126,470.81 	"/>
	<polygon points="680.602,350.283 682.862,350.283 684.181,349.492 685.875,349.153 687.759,349.153 694.915,349.906 
		694.915,350.659 695.668,353.296 699.435,354.049 703.578,355.179 708.098,355.179 710.734,354.426 711.864,352.542 
		710.734,348.776 709.228,347.269 706.968,346.139 701.695,345.763 701.318,344.633 701.695,342.75 701.695,341.243 
		697.928,340.113 694.915,339.736 693.408,340.49 693.032,341.996 694.915,343.88 695.292,346.893 694.915,347.269 690.019,346.893 
		681.732,346.893 677.589,346.139 669.68,345.386 662.147,343.88 656.497,341.996 655.367,341.62 654.883,341.512 651.977,340.64 
		651.977,340.49 648.964,339.736 644.068,338.983 639.924,336.723 636.158,336.347 632.015,337.477 632.392,336.723 
		632.266,336.472 632.303,336.324 633.521,335.593 633.898,335.217 635.405,333.71 635.781,330.697 633.898,328.437 
		630.943,327.452 630.885,327.307 629.378,326.93 625.989,326.93 621.845,328.06 620.119,329.269 619.962,329.19 618.079,330.697 
		615.819,333.333 615.839,333.344 613.936,335.593 614.312,339.36 613.559,340.49 613.696,340.901 613.559,341.243 613.828,341.297 
		613.936,341.62 617.326,341.62 618.079,343.126 619.962,344.256 624.105,344.256 625.612,343.503 628.248,340.866 630.508,339.36 
		632.015,339.736 633.898,341.996 636.535,345.009 639.548,345.009 643.314,344.256 656.497,344.633 658.569,346.139 
		659.887,347.269 660.18,347.311 660.64,347.646 662.523,347.646 664.867,347.981 665.285,348.148 666.196,349.058 667.043,351.036 
		669.303,351.036 669.68,350.659 670.433,348.776 671.94,348.023 677.213,348.399 	"/>
	<polygon points="612.806,638.795 612.429,637.665 610.546,635.405 608.286,633.898 604.896,633.145 601.506,634.275 
		599.247,636.535 598.117,639.924 598.117,642.938 598.493,644.444 600,646.704 602.636,648.211 605.65,648.211 607.909,647.834 
		607.909,647.709 609.039,647.457 611.676,645.198 612.806,642.938 	"/>
	<polygon points="298.305,152.543 299.058,154.426 300.942,155.179 306.591,152.543 306.591,149.906 305.085,146.14 
		302.825,144.256 300.188,144.256 298.682,145.763 	"/>
	<polygon points="70.057,299.058 70.399,299.161 70.81,299.435 71.048,299.356 73.823,300.188 77.213,299.812 79.096,298.305 
		79.473,296.799 77.213,295.292 69.68,292.655 65.914,291.526 65.16,291.902 65.16,293.409 67.42,297.175 	"/>
	<polygon points="52.354,410.169 56.497,410.546 58.757,409.04 58.757,407.533 55.367,406.026 45.951,403.39 43.315,403.013 
		42.561,403.766 42.938,406.026 45.198,407.533 	"/>
	<path d="M745.386,175.141l0.522-0.406l0.608-0.348l1.582-1.356l0.678-0.527l0.047-0.094l0.33-0.282l0.251-0.879l0.502-1.004
		l-0.1-0.402l0.1-0.352l-0.314-0.502l-0.063-0.251l-0.251-0.251l-0.628-1.004l0.126-0.251l-0.753-0.753l-0.377-2.26l1.507-2.26
		l1.13-3.39l2.26-0.753l1.13-0.377l3.766-1.883l1.507-1.883v-3.013l-0.753-3.39l-0.753-1.883l-0.108-0.126l-0.269-0.628
		l-1.014-0.869l-0.869-1.014l-7.156-3.766l-4.52-0.753l-0.377,0.054l-0.377-0.054l-1.883,0.377l-0.565,0.323l-0.188,0.054
		l-0.126,0.126l-1.758,1.004l-2.637,2.26l-3.013,2.637l-4.896,0.377l-4.896,1.883l-4.143,2.26l-3.013,3.39l-3.39,2.637l-6.026,3.013
		l-3.39,0.377l-1.883-0.753h-3.013l-0.753,0.377l-2.637,0.377l-1.883-0.753h-5.273l-2.26,0.377l-3.013,1.13l-4.52,2.637l-5.65,1.883
		l-1.13,0.377l-0.565,0.377l-0.663,0.295l-0.655,0.082l-1.13,1.13v0.452l-1.13,1.808v2.26l1.883,2.26l0.377,2.637l-1.507,3.766
		l-1.724,0.246l-1.666-1l-3.013-1.507h-4.52l-1.507,0.753l-2.26,2.637l-0.753,5.65l-0.753,0.377l-1.507-0.377l-1.883-0.377
		l-3.013,2.26l-1.13,4.143l-1.883,1.883l-5.273,3.39l-3.766,2.637l-9.04,6.026l-6.026,0.753l-5.65,1.507l-0.307,0.245l-0.447,0.131
		l-0.502,0.628l-0.628,0.502l-1.507,1.507l-0.377,0.377l-3.766,2.637l-1.008,0.784l-0.122-0.031l-2.26,1.883l-3.39,2.26l-1.883,1.13
		l-1.13,3.39l-2.637,1.13l-7.91,3.39l-1.507-0.377h-3.013l-3.013-0.377l-3.013-2.26l-2.26-2.637v-5.65l0.377-2.637l-1.13-1.883
		l-2.637-0.753l-1.13-0.753l-2.637-5.273l-2.26-3.013L558.192,200l-3.013-2.637v-1.507h0.753l6.591-2.637l5.085-1.883l1.318-0.942
		l2.825-1.695l4.896-1.507l1.883-1.507l1.13-0.753l2.26-1.13l5.65-0.377l0.377-0.377l0.753-3.766l4.143-1.13l4.896-3.766
		l3.013-0.753l0.753-0.377h0.377l2.26-1.13l0.094-0.235l0.282-0.141l3.766-1.507l3.766-1.883l2.637-1.13l1.13-0.377h0.377
		l1.883-0.753l2.26-0.753l4.52-0.753l0.753-0.377h0.377l0.904-0.678l2.109-1.205h1.13h5.65l2.637-0.377l2.637-0.753l1.883-1.507
		l1.507-3.766l-0.377-2.637l-3.013-2.637l-3.766-1.13h-2.637l-2.637,1.13l-4.143,3.39l-1.883,2.26l-2.576,1.145l-0.06-0.015
		l-0.753,0.377l-1.13,1.13l-0.942,0.753l-1.299,0.866l-6.799,2.147l-4.143,1.883l-3.766,1.13l-2.636,1.883l-12.053,6.026
		l-3.766,0.753l-6.026,1.883l-0.188,0.188l-0.565,0.188l-0.188,0.565l-0.565,0.565l-1.13,1.412l-1.632,1.224l-2.511,1.507h-2.637
		h-1.883l-1.507,0.753l-3.766,3.39l-4.52,2.26l-2.637,0.377v-1.883l0.753-1.507l-0.377-1.507h-1.883l-1.507,1.883l-1.13,1.13
		l-3.766-0.377l-0.377,0.377l-0.377,1.507l0.753,1.507l-0.377,2.26l-1.776,0.646l-0.861,0.108l-1.507,0.753l-3.39-0.377
		l-4.143,1.883l-1.13,1.13v3.39l-1.883-0.188l-1.13-0.188l-0.215,0.054l-0.538-0.054l-0.452,0.301l-0.301,0.075v0.126l-1.507,1.004
		l-2.637,1.13h-6.026l0.377-3.013l1.507-2.26v-6.026l-0.377-0.377l-4.52-1.883l-5.273-4.143l-3.766-2.637l-0.377-1.507l5.65-0.377
		l5.273-0.753l1.883-1.13l1.507-2.26l0.377-4.896l1.13-3.39l1.883-0.753l1.883-1.883l0.753-1.883l6.026-1.13l7.156-3.013l5.65-2.637
		l10.923-4.896l6.403-3.766l0.377-1.507l-2.637-1.13l-1.291-1.614l-0.309-0.928l-0.282-1.977l1.507-1.13l4.143-1.507l0.377-1.13
		l-0.753-0.377h-2.26l-2.738,1.521l-2.535,0.362l-1.13-2.637l-1.883-3.013v-1.883l1.883-2.26l0.753-1.507l-1.507-0.377l-1.883,1.883
		l-2.26,1.13v-2.26l-1.507-0.377l-1.13,3.013l-2.637-0.377l-1.883,1.13l-3.39,2.637l-3.766,1.13l-0.603,0.377H537.1l-2.26,1.507
		l-3.766,3.766l-2.637,3.766l-0.753,3.766l1.13,3.39l0.377,3.39l-2.637,2.637l-1.507,3.766l-1.883,0.753l-3.766,1.883l-2.637,2.26
		l-0.377,1.883l1.13,2.26v3.39l-0.377,0.377l-3.766,1.507l-3.766,0.377l-1.883-0.377l-2.26-0.377l-0.753,0.753h-1.883l-0.753-1.13
		l-4.52-0.753v1.507l1.13,1.883h-0.753l-8.286-1.13l-8.663-0.377l-3.013-0.753h-11.299l-5.273-1.13l-1.883-0.753l-0.377-2.26
		l-1.13-3.39l-0.753-3.766l-0.753-1.13l-1.507-4.143l-1.507-1.883l-2.26-1.13l-6.403-0.377l-1.507,0.753l-7.156,0.377l-1.507,0.753
		l-1.507,1.883l-2.26,6.026v5.65l1.13,0.753l0.377,1.13l-1.318-0.659l-1.318-1.977l-1.13-3.39l-0.377-0.452v-0.301l-0.377-0.377
		l-0.282-0.113l-0.847-1.017v-1.883v-4.52l-0.678-4.068l0.678-2.712l0.753-2.26l1.883-4.143l-0.377-4.52l-1.13-2.26l1.13-1.13
		l-0.377-2.26l0.377-2.637l0.753-4.896l0.753-1.13l0.377-6.403l0.377-2.26l1.465-5.273h0.042l0.377-1.507v-2.637l-0.158-0.053
		l-0.218-3.714l-1.883-2.26v-3.013l1.13-1.507v-7.156l1.13-3.766l-0.377-4.52l0.753-2.26l3.39-1.507l1.13-4.52l1.883-3.39
		l-0.377-2.26l-0.377-3.766h-0.203l-0.174-1.13l-0.753-1.13l-0.179-0.036l-0.574-0.717l-3.013-1.507l-2.637-0.377l-1.883,0.753
		l-3.013,2.637l-1.507,4.143v3.766l1.507,3.013l1.883,1.883v3.39l-1.883,9.416l-1.507,8.663l-0.377,5.273l-0.753,4.52l-1.883,8.663
		l-3.013,10.546l-3.013,7.91l-0.753,4.52v3.39l-0.377,3.39l-0.753,0.377l-4.143,0.377l-0.753,0.753l-0.502,1.381l-0.251,0.502v0.188
		l-0.753,2.072l0.377,3.766l1.507,1.883v2.26l-0.377,0.753l-1.883,1.13l-1.507-0.753l-0.753-4.896l-0.377-0.502v-0.251l-0.753-0.753
		L400,152.166l-0.753-1.13l-0.753-4.896l-1.507-1.507l-0.377-3.39h0.377h0.377l1.507-1.13l1.507-2.26v-3.013l-1.883-6.78
		l-2.637-2.26l-2.637-0.377l-0.113,0.038l-0.264-0.038l-2.26,0.753l-1.883,1.507l-1.507,2.26v5.273l1.507,7.156v4.143l-0.377,3.013
		l-3.013,0.377v-0.753l-1.13-0.377l-0.753,2.26l-2.637,5.273l-0.377,2.637l-0.377,1.883h-3.013l-1.883-0.377l-0.377-4.52
		l-3.39-3.013l-2.26-0.753l-0.753,0.377v0.377l-0.753,0.753v5.273l-0.753,0.377h-4.52l-0.753-0.753l-1.507-3.766l-1.883-3.766
		l-0.753-3.39l2.26-3.39v-2.637l-0.753-3.39h0.753l0.753-1.507l-1.507-0.377l-0.753,0.753l-1.13,0.282l-1.055-0.132l-2.712-0.904
		l-0.226,0.045l-0.151-0.045l-1.507,0.377l-3.013,2.26v2.26l0.292,1.531l0.085,1.106l0.105-0.105l1.024,5.379l1.507,3.766
		l2.637,3.013v1.883l-0.753,0.377h-3.013l-2.26-1.13l-0.753-0.377l-0.753-0.377h-3.766l-0.377-0.377l-0.377-0.188l-0.753-0.565
		h-0.377l-2.26-1.13v-1.507l1.13-1.883l0.377-3.766l0.377-0.753l2.26-4.143l0.377-2.637l-2.26-0.753l-2.637-2.26l-1.883-0.753
		l-6.78-0.753h-4.143l-2.26,1.13l-0.522,0.435l-0.232-0.058l-2.26,2.26v0.377l-0.753,1.13v4.52l0.377,1.883l1.13,1.883l-0.377,5.273
		l1.13,1.507l0.337,2.022l-0.714,0.238l-8.286,0.377l-0.377,0.377l-0.377,1.883l0.753,0.753l0.377,0.226v0.151l1.507,0.753
		l4.143-0.377v1.13l-2.26,2.637l-1.507,2.637l-0.377,7.533l-2.367,2.152l-0.269,0.108l-1.507,1.507l-0.377,1.883l0.753,1.883
		l-1.13,2.26l-1.883,1.883h-4.52h-1.13l-0.377-0.753l-0.377-4.143l1.13-4.52v-3.39l-0.377-0.942v-0.188l-0.171-0.24l-0.205-0.514
		l-1.507-1.883l-0.11-0.028l-2.526-2.986l-2.637-4.143v-2.26l0.753-0.753v-2.26l-0.753-1.507l-2.637-7.91v-3.013l0.753-1.507
		l1.883-1.13v-1.507l-0.753-0.377l-2.26,0.377l-0.251-1.256l0.251-1.004l3.766-2.26l2.157-1.917l0.103,0.034l0.113-0.226
		l1.017-0.904v-1.883l-1.13-0.753h-2.26l-0.646,0.323l-0.484,0.054l-1.507,0.942l-0.377,0.188l0.013,0.039l-1.143,0.714
		l-2.637,0.753l-3.013-2.637l-3.766-1.883l-2.326-1.994l-1.063-1.772l-0.377-2.637l0.753-0.377l0.377-1.13l-1.883-1.507l-1.13-3.39
		l-0.753-4.896l-2.434-3.824l-0.831-2.076l-1.256-3.515l-0.251-0.251l-0.502-1.256l-2.26-1.883l-1.507-2.26l-0.377-3.39l-1.13-4.896
		l-1.507-3.013l-0.377-0.753l-1.13-6.026l-1.13-3.013l0.377-3.766l-0.753-3.013l4.896-0.753l2.637-1.507l2.55-2.868l1.594-1.275
		l1.13-1.883l0.753-6.403l-1.507-2.637l-0.377-3.013l1.13-0.377v-1.883l-0.377-0.377l-2.26-1.507l-1.883-1.507l0.377-3.766
		l-3.39-2.26l-2.26-4.143h-0.753v0.753l1.13,2.26l-0.377,1.883h-5.65l-4.143,0.753L251.827,40l-0.226-0.075l-1.13,0.753v0.753
		h-0.753l-0.753,1.13l0.075,0.226l-0.452,0.904l-2.26,0.753l-1.13,1.13l-0.753,3.39l-1.507,4.896l0.377,2.26l0.753,3.766l1.13,2.26
		l6.403,6.403l0.956,0.159l0.174,0.217l3.39,0.377l1.13,0.753l0.377,4.143l0.753,1.507l0.377,7.156v5.273l0.753,7.156l2.26,4.143
		l3.39,5.273l1.13,3.766l0.377,0.753l0.753,1.507l0.188,0.377l0.188,0.753l0.226,0.075l0.527,1.055v0.377l0.608,1.014l0.974,2.677
		l0.678,2.712l1.318,3.625l0.565,2.119v0.282l0.377,1.13l2.637,3.013v3.39l-0.377,1.507l0.377,10.923l0.377,3.013l0.753,2.26
		l0.753,2.26l1.883,3.39l1.883,3.013l1.507,4.52l1.381,2.072l1.256,2.825v6.403h-1.507l-0.753-2.26h-3.766l-1.507,0.753
		l-3.013,1.507l-3.39,0.753l-3.39-1.13l-2.637-2.26l-2.637-1.13l-3.39-2.26l-1.13-0.646l-0.753-0.484l-0.117-0.013l-3.273-1.87
		l-1.507-3.39l-0.301-0.603l-0.075-0.527l-0.753-1.13l-0.377-0.753l-0.293-0.251l-0.084-0.126l-0.414-0.301l-1.846-1.582
		l-1.396-0.775l-0.487-0.354l-0.377-0.126l-1.13-0.628l-0.377,0.126l-0.377-0.126l-1.507,0.753l-0.909,0.808l-0.22-0.055l-2.26,2.26
		v2.637v1.507l1.883,1.507l3.453,3.107l0.356,0.534l0.234,1.406l-0.115,1.033l-1.291,2.583l-1.883,2.26l-3.013,1.507l-2.034,2.712
		l-2.109,1.808l-3.013,1.13l0.377-3.39l-0.753-1.883l-8.286-0.377l-1.13-0.753h-1.883l-3.766,1.13l-7.91,0.377l-1.883,0.377
		l-1.507,1.13l-0.108,0.161l-0.269,0.215l-0.377,0.753l-0.753,1.13l-1.507,1.883H200l-2.26-3.013l-2.26-1.412v-0.094l-0.753-0.377
		l-3.39-0.377l-0.753,0.377l-1.507,4.896l-1.507,1.883l-2.637,1.13l0.753-2.637l1.883-1.507l-0.753-1.13l-0.628-1.046l-0.879-2.344
		l-1.507-1.13h-7.533h-4.52l-1.13,0.753l-1.883,0.377l-0.377-1.13l-0.753-7.91l-1.507-1.507h-2.26l-1.13,1.13v0.126l-0.565,0.628
		h-0.188l-0.942,1.256l-0.565,0.628l-1.13,3.766l-1.883,2.26l-1.507,3.39l-1.883,3.013l-0.215,0.753h-0.161l-0.377,1.883
		l-0.377,4.143l2.26,3.013l-0.377,3.013l-1.13,14.313v4.143l0.753,2.26l1.507,1.883l3.013,4.143l2.637,3.766l3.013,3.013
		l1.883,0.377l2.26-1.883l2.637-3.013h1.507l2.637,1.883l3.766,3.39l2.637,3.013l5.65,6.026l1.13,2.26l-1.507-0.377l-4.52-5.65
		l-3.766-3.39l-4.143-2.637l-2.637-0.377l-2.637,1.883l-0.753,1.507l3.766,4.143l4.143,7.156l0.377,1.883l-2.26,1.883l-5.65,3.013
		l-1.507,0.753l-2.448,1.507l-1.318,0.753l-0.212,0.188l-0.918,0.565l-1.13,1.255l-1.13,1.004l-0.646,0.969l-0.484,0.538
		l-0.188,0.471l-1.13,1.695l-0.188,0.094l-0.251,0.565l-1.632,2.448l-2.637,1.507l-0.43,0.377h-0.323l-1.055,1.205l-1.205,1.055
		l-0.174,0.522l-0.203,0.232l-0.075,0.603l-1.808,5.424l-1.507,7.156l-0.753,1.13l-3.39-0.377l-2.637-0.377l-0.565,0.377h-0.188
		l-0.377,0.377l-0.484,0.592l-2.152,2.421l-1.507,1.507l-2.26,1.13l-3.013,2.26l-0.377,0.565l-0.377,0.188l-0.377,0.753l-0.094,0.33
		l-1.036,1.554l-4.896,1.13l-2.26,1.883l-2.637,3.39v3.39l0.753,2.26l1.507,2.26h2.637l0.753-0.377l2.26-1.883l1.507-3.766v-3.39
		l0.377-3.39l1.13,0.377l2.637,2.26h2.26l3.39-3.39l3.013-2.637l2.637-2.26l0.753-1.883h0.753l3.013,0.377l0.094-0.031l0.282,0.031
		l0.251-0.209l0.502-0.167l0.753-0.879l0.753-0.628l-0.116-0.116l0.869-1.014l1.507-0.377v3.013l-0.377,0.377l-2.637,0.753
		l-4.52,1.507l-3.766,2.26l-0.377,0.377l-1.318,1.507l-1.695,1.883l-1.883,6.026h-1.13l-1.507-2.26h-1.883l-3.766,5.65l-1.883,1.507
		l-1.883,1.883v3.766l-0.522,2.347l-0.495,1.156l-2.373,1.017l0.054,0.018l-0.191,0.085l-2.876,1.027l-0.205,0.342l-0.925,0.411
		l-1.883,2.26l-0.847,2.825l-0.785,1.569l-1.004,1.255l-0.753,2.637l-0.753,1.883l-3.39,2.26l-3.39,0.753l-1.13-0.753h-6.403
		l-2.637-0.753l-7.91-0.753l-2.637,0.377H77.59l-2.26-0.377l-9.04,1.507l-2.637,1.507l-5.65,1.507l-1.13,1.13l-0.377-1.13
		l1.13-3.766l2.637-3.013l2.26-1.507l3.013-0.753l0.301-0.151l0.829-0.226l1.13-1.13V325.8l-0.753-0.753l-0.753-0.753l-3.013-1.507
		h-4.52l-1.13,0.377l-1.883,1.883l-1.004,1.507l-1.255,1.507l-6.026,1.883l-1.076,0.861l-0.054-0.108l-0.753,0.753l-1.13,3.766
		l-1.13,3.766l-1.883,2.26l-1.507,2.26l-2.26,2.637l-0.377,2.26l0.753,1.13l4.143,2.26l1.507,1.507l0.753,1.13l2.26,1.883h7.156
		l3.39,1.507l6.403,2.637l4.52,0.377l3.013,0.753h4.143l0.753-0.377h3.39l1.13,0.377l8.744,4.197l3.309,2.206l-0.377,1.507
		l-0.753,2.26l1.883,2.26l1.883,0.753l4.143-0.377l1.883,0.753v0.753l2.637,2.26l4.143,1.507h3.39l1.13-0.377l1.507-1.507v-1.883
		l-2.26-2.26l-0.377-0.377l-0.479-0.137l-1.027-0.616l-5.65-3.013l-0.377-1.507l4.52-1.13l3.013,0.377l2.086,1.391l2.434,3.129
		l1.13,1.507l0.452,0.075l0.301,0.301l0.753-0.126l0.753,0.126l0.43-0.323l0.323-0.054l0.323-0.43l0.43-0.323l0.215-0.538
		l1.291-1.722h2.26l0.753,0.377l3.013,0.377l2.26-0.753l3.013-0.377l-0.377,1.13l-2.637,2.637l-0.377,2.26l1.13,1.13l1.883,0.377
		l0.753-2.637l2.637-0.377v1.507l0.753,7.533l1.13,3.39l4.52,1.13l1.13,2.637l1.13,1.507l2.637,0.377l0.137-0.069l0.616,0.069
		l0.377,2.637l0.829,1.657l-0.075,0.226l1.255,2.511l1.004,2.762l-1.13-0.377l-2.26-3.39l-0.393-0.442l-0.737-1.064l-0.879-0.753
		l-1.004-1.13l-3.39-2.26h-4.52l-5.65,1.13l-0.471,0.377h-0.282l-0.377,0.377l-0.174,0.29l-0.579,0.464l-0.116,0.695l-0.261,0.435
		l0.103,0.514l-0.103,0.616l0.308,0.411l0.068,0.342l0.301,0.151l0.452,0.603l4.52,1.883l2.26,3.013l3.013,1.13l3.013,2.26
		l5.273,3.39v1.883l-3.39,1.883l-2.26,0.753l-0.753-1.507h-1.883l-0.332,0.399l-0.044-0.022l-1.507,1.883v1.883l0.377,0.377
		l1.507-0.377l-1.13,3.013v5.273l-0.753,0.377l-0.215,0.269l-0.161,0.108l-0.126,0.251l-1.004,1.255l-1.507,0.753l-2.637-1.13
		l-0.238,0.059l-0.139-0.059l-0.377,0.188l-0.753,0.188l-1.13,0.753l-0.753,0.377l-0.094,0.188l-0.282,0.188l-4.143,1.507
		l-5.65,1.13l-4.52,0.753l-3.766,2.637l-4.896,0.377l-6.403,1.13l-2.26,1.13l-2.26,3.013l-2.26,1.883h-7.533l-1.883,0.377
		l-1.507,1.13l-2.26,1.507l-1.883-0.377h-2.26l-1.507,0.753l-3.766,0.753l-0.565,0.377h-0.188l-0.215,0.269l-1.291,0.861
		l-3.013,1.507l-4.896,1.507h-3.39h-2.26l-5.65,1.883l-3.013,1.883l-1.883,3.013v8.286l0.377,0.753l3.766,3.39l3.013,1.13h3.39
		l2.26-0.377l1.507-0.753l3.013-2.637l3.39-4.143l2.26-1.13l5.273-0.753l2.26,1.13l2.637-0.753l4.143-1.883l5.65-0.753l0.502-0.377
		h0.251l0.377-0.377l3.39-1.13l0.301-0.241l0.452-0.136l3.013-3.013l2.26-0.377l1.883,2.26h0.753l0.377,2.637l1.507,1.883
		l0.091,0.034l0.285,0.342h0.628l2.009,0.753l1.883,1.883l2.637,1.13l6.403-0.377l0.377-0.377l0.753-0.377v-0.377l0.377-0.377
		l0.753-4.896l-0.377-2.26l-1.13-1.883l-0.269-0.161l-0.108-0.215l-0.753-0.301l-0.753-0.452l-0.287,0.036l-0.09-0.036l-2.637,0.377
		h-3.39l-1.13-0.377l-2.637,0.377h-4.896v-0.753l3.683-1.534l0.084,0.028l3.013-1.507l1.036-0.847l0.471-0.283l4.143-3.39
		l1.507-1.883l1.13-0.377h5.65l3.766-1.507h2.637l1.13,0.377l3.013,2.637l1.883,0.753h4.52l1.507-0.753v-0.151l0.377-0.226
		l1.883-0.377l4.068,2.034l0.075,0.226l1.13,0.377l8.286,0.377l0.753-0.377l0.058-0.232l2.202-1.651l4.143,0.377l0.377,1.13
		l0.377,4.143l1.507,2.26v2.26l-0.377,0.753l-1.507,1.507h-2.26l-0.753-0.377h-2.637l-2.637,1.13l-0.753,0.565l-1.13,0.565
		l-0.678,0.791l-0.452,0.339l-0.435,0.695l-0.695,0.811l-0.026,0.344l-0.727,1.163l-0.377,3.39l2.637,3.013l0.753,1.507
		l-1.507,0.753l0.377,1.507h6.403h3.013l1.883,0.377v3.39l-0.377,4.143l-0.753,15.066l1.559,4.052l0.325,1.786v2.448l0.377,0.377
		l3.013,1.507l3.013,0.753l1.883,0.753l2.26,1.507h4.896l0.753,0.377h3.013l1.507-0.377l2.26,0.377l0.251-0.063l0.502,0.063
		l0.377-0.282l0.377-0.094v-0.188l0.108-0.081l0.269-0.108l0.075-0.151l0.301-0.226l0.075-0.527l0.678-1.356h1.883l2.26,3.013
		l2.26,4.143l1.507,0.753l1.507-1.507l3.39,6.026l1.507,4.143l-1.37-1.096l-1.644-1.917l-2.26-1.507l-3.013-0.377l-1.883,0.753
		l-0.59,1.376l-0.164-0.246l-0.377,1.507v4.143l0.377,1.507l0.377,1.507l1.883,1.883h2.637l1.883-0.377l3.39-2.26v-0.753
		l0.753,0.377l-0.377,4.896l4.143,2.26l1.507,3.39l2.26,1.883h3.766l1.883-0.377h5.273l1.13,4.52v3.39l1.507,2.26l1.883,4.52v2.637
		l-0.377,0.377l-1.507,2.26l-2.26,0.753l-3.013,3.766l-1.883,1.883l-0.377,0.377l-0.238,0.595l-0.139,0.159v0.094l-0.557,0.905
		l-0.197,0.131l-1.507,2.637l-1.13,3.39l-1.507,0.753l-1.13,2.637l-1.507,2.637l-0.377,3.766l-1.13,1.507l-0.126,0.251l-0.628,0.879
		l-0.377,1.13l-0.377,0.753l-0.094,0.659l-0.659,1.977l0.377,8.663l0.753,1.507l0.377,9.416l0.377,1.13l1.883,2.26l0.034-0.068
		l0.719,0.822l3.39,2.637h7.91l1.13-0.377l0.628-0.502l0.502-0.251l2.009-1.758l0.628-0.502l0.136-0.166l0.241-0.211l0.026-0.115
		l0.311-0.381l0.04,0.119l2.637-3.39l0.319-0.377h0.058l1.13-1.13v-0.274l2.637-3.116l2.637-3.013l0.108-0.215l0.269-0.161
		l0.377-1.13h1.883l0.377,1.13l2.26,0.753l-1.13,2.636v2.26h3.013l1.13-0.377l1.883-1.507l0.753-2.636h0.753l-0.141-0.047
		l4.284-0.33l3.228-1.076l0.538-0.054l0.753-0.377l1.507-1.883l3.39-0.753l1.13-1.13l2.26-1.695l1.883-1.318l4.896-3.766l4.143-3.39
		h4.896l1.13,0.377l3.39,2.26l1.13,0.753l0.753,0.377l3.013,1.507l1.507,0.753l2.26,1.13l2.26-0.377l4.52-0.377v1.13l0.753,0.753
		l3.39,0.377l0.753,0.753l3.766,2.637l-0.377,6.403l1.13,4.52l1.883,1.507h3.013h0.753l3.39,1.883l0.753,0.411l1.13,0.719
		l0.318,0.071l0.436,0.238v0.068l1.507,0.753l6.403,0.377l-1.13,4.896l-0.377,4.143v3.766l1.13,4.143v3.013l-2.26,1.507
		l-0.377,2.637l0.753,0.753l4.143-0.377l0.377,1.13v3.013l-0.377,0.377v1.883l1.883,1.13l0.145,0.029l0.608,0.348l0.565-0.113
		l0.565,0.113l0.411-0.308l0.342-0.068l0.151-0.301l0.603-0.452l0.261-0.869l0.116,0.116l0.753-3.013l0.377-3.39l-0.822-2.191
		l-0.685-3.082v-4.143l0.377-1.507l1.13-1.13h4.143l2.26,0.377l0.753,13.559l0.377,31.262l1.13,1.13l1.883-0.377v-9.793
		l0.753-14.689l-0.377-15.443l-0.377-1.883v-10.169v-8.663l-1.507-0.753l-1.13,1.13l-0.377,0.377l-0.753,3.013l-0.377,6.78h-0.753
		l-1.507-0.753l-1.758-1.004l-0.986-0.986l-0.269-1.211v-1.695l1.792-2.091l3.857-2.805l2.26-1.13l2.26,0.377l1.883,1.883
		l6.78,0.377l0.377,0.377l1.13,1.883l0.377,7.156l3.013,2.637l1.13,3.39l1.507,1.507l0.753,5.273l0.377,3.39l0.753,4.143v6.403
		l1.507,4.52l1.507,1.883l0.753,6.026l0.753,1.883l0.044-0.022l0.332,0.775l0.377,3.39l1.883,2.637v2.637l-0.753,1.507l-2.26,3.39
		l-2.637-0.377l-3.013,1.883l-1.883,1.883l-0.565,1.507h-0.188l-0.377,1.507v4.52l1.13,2.637l3.013,1.883h5.273l1.883-1.13
		l1.883-1.883l2.26-1.883v-0.054l0.377-0.323v-3.013h0.753l1.883-1.13v-3.766l-0.753-3.013l-0.753-3.013l-0.377-5.273l-1.13-3.766
		l-1.13-6.026l-0.753-1.883l-0.226-0.075l-0.527-1.055l0.377-2.26v-2.26l-0.377-0.753l-0.753-3.39v-3.013l0.753-1.13h1.883
		l1.13,1.883l1.507-0.377v-3.766l-1.507-2.26l-3.013-0.377l-1.13-0.753l-0.753-4.143l-1.883-3.39l-0.377-4.52l1.13-3.766
		l-1.13-1.883l-1.13-2.26v-2.637l0.753-1.507l2.26-1.883l4.52-0.377v2.637l0.377,0.283v0.094l2.637,1.883l3.39,4.896l2.637,1.13
		l4.143-0.377h4.52l3.39-1.13h3.766l0.753,0.377l1.13,3.013l2.637,6.026l0.097,0.049l0.656,1.458v3.013l0.694,0.833l0.06,0.297
		l0.323,0.161l0.807,0.969l1.13,3.164v0.226l0.753,1.883l2.109,3.013l1.469,2.448l0.942,1.695l0.094-0.188l1.412,1.695l2.26,3.39
		l3.39,5.65l3.39,5.273l3.013,7.156l1.507,2.152v0.108l1.13,1.507l0.753,3.013l0.753,0.753l1.159,1.594l2.608,4.056l0.753,2.26
		l-1.507,0.753l-1.13,1.507v3.013l0.377,0.377l1.883,0.753v3.39l1.507,2.26l3.013,1.883h6.403l1.13-0.753l1.883-1.883v-4.143
		l-0.377-1.13l-1.13-3.013l-2.26-1.13l-1.883-0.753l-0.753-2.26l0.753-3.39l-1.13-0.753l-0.282,0.047l-0.094-0.047l-0.145,0.087
		l-1.738,0.29l-1.507-0.377l-4.896-9.793l-3.013-9.04l0.377-3.39l-3.766-4.896l-3.013-6.026l-1.507-4.143l-2.26-3.766v-2.26
		l0.753-1.13v-3.39l-1.13-1.507l-0.377-1.883l0.753-0.377l0.921-0.806l0.209,0.052l1.883-1.883l0.377-2.637l-0.753-1.507
		l-0.377-0.753l-0.753-4.52l-0.377-0.753l-1.883-0.753h-3.39l-2.26,1.883l-1.507,0.377l-0.753-2.26v-3.474l3.013-0.67l1.13-1.13
		l-0.377-3.766l1.13-1.883l2.637-1.507l5.65-1.883l1.205-0.703l0.301-0.05l3.766-2.26l0.133-0.332l0.997-0.798l0.753-4.143h0.753
		l4.52-2.26l-0.753,1.507l-0.377,4.896l-1.507,6.026v4.143l0.377,1.507l0.377,1.507l-2.26,1.883l0.108,0.054l-1.614,1.453v1.883
		l1.13,1.507l1.507-0.753l4.896-4.143l3.013-1.507l3.766-2.26l2.637-1.507l2.26,0.377l1.11-1.427l1.903-1.586l1.883-2.26l2.91-1.819
		l4.999,0.312l6.026-2.636h4.896l0.377,0.377v1.883l-1.507,1.883l-2.26,4.143l-3.013,2.637l-0.22,0.659l-0.157,0.094l-0.753,2.637
		l-3.013,3.766l-3.013,4.52l-4.896,4.896l-2.26,3.39l0.377,3.013l1.507,1.883l2.637,1.507h3.766l0.377-0.377l1.13-2.26v-2.637
		l-0.753-1.883l-0.251-1.507l0.197-1.184l0.43-0.574l1.883-1.255l2.26-1.13l2.637-1.678l0.377-0.205v-0.034l1.13-0.719l3.39-1.13
		l0.377-0.753l4.143-4.52l2.637-0.377l1.507,1.13l1.507,1.507l0.226,1.13l-0.204,1.019l-0.315,0.236l-2.344,1.004l-1.507,2.637
		l-3.766,1.883l-1.507,1.883l-1.13,1.883l0.753,1.255v0.251l0.377,0.377h1.883l1.13-1.13l0.753-0.753h1.883l0.377,0.753v4.143v1.883
		l0.753,0.377l0.151-0.075l0.226,0.075l0.075-0.226l0.301-0.151h2.637l1.883,1.883h4.896h3.39l0.377-0.377v-0.126l0.753-1.004v-2.26
		h1.13l2.637,2.26l0.377,2.26l-2.637,4.896l-0.377,3.013l1.13,3.013l3.013,2.637l3.013,1.13l3.013,0.377l1.507-0.753l0.377-2.26
		l-1.13-4.52l-1.13-2.637l-0.753-3.39h2.26l2.637,0.377l6.78,0.377l6.78,0.377l1.13,3.013l1.883,1.13l5.273,0.377l0.377-0.377v-2.26
		l-0.377-0.753l0.377-1.507l3.766-0.753l0.753-0.753l1.883-0.753l7.91-0.753v1.507l1.507,6.78l0.377,7.533l0.377,0.753l0.377,4.143
		l1.13,1.883h1.883v-1.507l-0.753-2.26l0.377-3.766l0.484-1.13h0.269l0.377-1.13l-0.078-0.195l0.078-0.182l-0.502-0.879
		l-0.251-0.628l-0.126-0.031l-0.628-1.099v-4.143l1.507-1.507l0.377-2.637l-2.637-1.13v-1.883l0.377-0.377l1.883-1.13h1.13h3.013
		l4.143-0.753l2.26-1.13l1.13-1.883v-2.637l-0.753-0.753l-0.377-0.377l0.377-1.507h2.637l0.753-0.753l1.13-1.13l2.26-1.13
		l7.91-1.507l0.737-0.295l0.393-0.082h3.013l0.377,0.753l1.883,1.13h4.896l1.883-1.13l2.637-0.377l1.507-1.507l0.377-2.637
		l-4.143-4.52l-0.038-0.009l-0.339-0.367h-2.26l-1.507-0.753l-3.766-0.753l0.377-1.507l4.52-2.26l1.507-0.753l3.39-2.26l3.39-0.753
		l2.26-0.753l0.377-4.143l0.377-0.377l2.637-0.753h4.896l3.39,0.753l8.663,0.753h3.766l1.13-0.753l-0.377-1.507h-2.26l1.883-3.39
		l1.381-5.524l0.287-0.717l0.743-0.99l1.45-1.243l2.04-1.569l1.933-1.406l3.465-1.733l-0.021-0.014l3.411-1.492l6.026-3.013
		l3.39-1.507l0.028-0.047l0.725-0.33l2.323-2.654l1.255-0.359h1.318h2.26l1.13-0.753l2.26-3.39l2.637-3.013l3.766-2.26l3.766-3.013
		l3.39-1.883l4.143-2.637l1.883,0.377l3.39-0.377l3.766-1.883l1.507-2.637v-3.39l-0.377-0.753l-3.013-2.636h-3.39l-1.883,0.753
		l-1.507,1.507l-1.13,4.143l-1.507,0.753l-2.26,2.637l-3.013,1.507l-3.39,1.13l-4.896,1.507l-1.883,1.13l-2.26,1.507l-3.766,1.13
		l-1.883,1.507l-0.038,0.094l-0.339,0.282l-3.39,0.753l-1.318,0.377h-0.565l-3.39,1.13l-9.416,4.52l-0.471,0.377h-0.282l-1.13,1.13
		l-1.883,1.883l-4.52,1.13l-0.847,0.282l-0.358,0.094h-0.301l-1.13,0.377l-0.188,0.188l-2.825,0.942l-2.26,1.507l-3.766,2.637
		l-1.507,0.377l-0.377-3.39l-2.637-3.013l0.377-2.26l1.13-0.377l1.13-2.26l-0.054-0.161l0.43-0.969l1.13-1.13l4.143-1.507
		l0.301-0.377h0.075l0.377-0.377v-0.188l0.753-0.942l-0.377-1.883l-2.26-1.883l-0.377-1.507l2.26-3.013l1.291-0.861l0.215,0.108
		l1.883-1.507v-1.883l-1.883-0.377l-1.883,1.13l-1.883-0.377l-1.13-1.883l-4.143-1.883l-3.013,0.377l-2.637,0.377v-3.013l2.26-0.377
		l1.883-3.013v-2.637v-2.637l3.766-1.883l2.26-2.637l3.013-3.013l2.637-1.13l1.13,0.377l0.377,1.13l0.377,0.188v0.188l1.13,0.377
		h2.637l1.13-0.377l1.507-1.883h2.26l0.753,1.883l0.753,0.753l2.26,0.377l1.004-0.753h0.126l0.377-0.377v-1.883l-0.377-0.377
		l-0.377-1.883l1.883-2.637v-2.26l-0.753-0.753l-2.26-1.507l-2.26-0.377l-6.403,2.26l-5.273,2.637l-4.52,1.883h-3.766l-4.52-0.377
		l-0.753-1.13v-3.39l1.507,0.377l1.883,1.13l2.26-0.377l3.013-4.143l2.26-3.39l-0.377-2.26l-1.883-1.507h-2.26l-2.26,1.13
		l-0.753,0.377l-1.13,0.753l-2.26,2.26l-0.942,0.235l-0.726-0.182l-0.969-1.937l-0.377-2.637l0.753-1.507h0.753l0.377-0.753
		l2.637-2.637l2.26-1.13l1.507-1.13l1.883-4.52l3.766-3.766l4.143-4.896l3.013-2.637l3.013-1.883l0.753-1.507l1.507-0.753
		l4.896-4.52h3.013l2.637-0.753l2.26-3.39v-2.637l-1.883-3.013l-1.883-1.883l-2.26-0.753l-3.39,1.13l-1.507,1.883v2.26v3.766
		l-0.753,1.13l-3.39,2.637l-3.766,1.883l-1.883,2.26l-5.65,5.65l-1.13,0.753l-2.26,1.13l-0.377,3.013l-1.329,1.108l-4.32,2.659
		l-2.637,0.377l0.377-2.637l0.377-7.533l0.377-1.507v-4.896l3.013-1.13l1.507-0.753l1.507-0.753l1.883-2.26l0.377-2.637l-0.753-2.26
		l-1.507-1.883l-1.883-1.883l-2.26-0.377l-3.766,1.507l-2.637,2.26l-1.13,2.26l0.377,1.883h0.188l0.565,1.883v2.26l-0.377,0.753
		l-4.52,4.143l-2.637,0.377l-2.26-1.883l-1.883-0.377l-1.507,1.13l-4.143,1.13l-0.59,0.262l-1.67,0.491l-0.706,0.565l-0.424,0.188
		l-0.188,0.301l-0.565,0.452l-0.502,1.255l-0.628,1.004l-0.036,0.656l-0.34,0.85l-0.377,4.896l-1.507,0.377l-2.637-1.507
		l-0.377-1.507l1.13-1.507l2.637-5.273l2.637-4.143l1.335-1.781l0.171-0.103l1.883-2.637l3.39-0.753v-1.507l-1.13-1.13v-1.883
		l2.26-4.52l-0.09-1.256l0.09-0.628l-0.157-0.314l-0.22-3.076l1.13-3.013l3.013-2.637l3.013-2.637l0.377-1.507H600l-1.13,1.13
		l-1.198,0.514l-1.438,0.24v-1.883l2.592-9.793h0.044l0.301-1.306l0.452-1.707l0.753-3.515l1.883-8.161l0.753-4.52l0.753-3.766
		l0.282-2.26h0.094l0.377-3.39l0.659-3.955l0.309-0.619l0.839-0.21l1.017,0.169l5.461,2.731l0.262,0.115l0.491,0.262l1.829,0.753
		l3.444,1.507l0.097-0.049l1.033,0.425l1.004,0.314l0.879,0.439l2.134,0.502l2.009,0.628l1.146,0.115l1.114,0.262l0.67-0.084
		l0.837,0.084l0.904-0.301l0.603-0.075l1.431-0.603l1.582-0.527l1.758-0.879l2.385-1.004l0.075-0.226l0.301-0.151h0.377l1.507-1.13
		l0.377-0.753l0.377-0.377l0.157-0.691l0.22-0.439v-0.527l1.507-6.629l0.377-4.143l-0.753-1.13l-4.52-3.013l-1.048-0.59l-0.835-0.54
		l-1.13-0.565l-3.013-1.695l-1.13-0.377l-0.753-0.377h-0.377l-3.39-1.13l-1.13-0.205v-0.171l-3.013-0.377h-5.273l-0.377,0.377
		h-0.377l-0.377,0.377v0.377l-0.377,0.377l-0.377,3.39l-2.637,2.26l-5.273,3.766l-2.26,0.377l-0.377-2.825v-0.188l-0.377-2.637
		l-0.753-1.883l-1.13-4.52l-2.637-7.91l-3.013-4.896l-0.377-1.883l2.637-0.753l1.883-0.753l0.603-0.377l1.657-0.753l0.753-0.753
		l2.678-2.344l1.465-0.293l0.377,0.753l2.26,1.883l4.896,1.507l4.52-1.13h4.52l1.883-0.377v-2.637l-0.377-1.13l-0.565-0.753
		l-0.188-0.377l-0.177-0.111l-0.199-0.266l-2.26-1.271l-0.377-0.235l-0.06-0.01l-3.33-1.873l0.377-3.766v-3.39l-0.753-1.507h-1.507
		l-0.377,1.883l0.753,1.883v3.013l-0.753,0.753l-3.766,1.13l-1.883,0.753v-4.52l-0.753-1.004v-0.126l-0.377-0.377h-2.26l-3.39,1.507
		l-3.39,0.753l0.753-3.766l1.507-12.429l5.273,0.377l2.26,0.753l0.706,0.989l0.047,0.141l0.502,0.628l0.628,0.879l0.094,0.024
		l0.282,0.353l0.565-0.141l0.565,0.141l0.753-0.753v-3.013l-2.26-1.507l-6.026-3.013h-2.636h-2.637l-1.883-3.013l-0.753-5.65
		l-0.377-0.753l-0.377-3.013l1.13-0.753l1.883-1.13v-1.883l-3.766-2.637h-2.26l-0.205,0.274l-0.924,0.103l-0.753-0.377l0.377-1.507
		l1.228-1.074l0.279-0.056l1.507-1.507l1.883-0.753v0.753l1.13-0.377v-5.273l0.377-1.13l2.637-3.013l3.013-2.26l2.26-0.753
		l0.377,1.883l0.72,0.144l0.033,0.233l0.502-0.126l0.628,0.126l0.753-0.753l0.377-2.637l3.013-1.13l2.26-3.39l5.65-0.377
		l1.883-0.753l1.507-1.883l3.39-3.013l3.766-2.637l3.39-1.507l5.65-4.52l3.766-3.39l4.143-3.013l4.143-4.52l4.143-3.39v-0.753h0.753
		l1.507-1.507l1.883-1.712l1.13-0.924l0.633-0.678l0.497-0.452l1.13-1.291l3.013-3.228l1.507-1.507l2.157-2.637l2.739-3.013
		l1.13-1.318l2.637-2.825l0.43-0.753l0.323-0.377l0.151-0.452l0.603-1.055l-0.137-0.342l0.137-0.411l-0.502-0.502l-0.251-0.628
		l-0.471-0.094l-0.282-0.282l-0.659,0.094l-0.471-0.094l-1.507,0.377l-2.26,2.26l-2.637,3.766l-3.013,4.143l-4.143,5.273l-2.26,1.13
		l-0.753,1.507l-1.507,1.883l-2.26,2.072l-1.507,1.318l-0.188,0.235l-0.565,0.518l-4.143,3.013l-1.804,1.546l-0.079-0.04
		l-3.39,3.013l-3.39,1.883l-3.39,2.465l-2.637,1.678l-2.637,0.377l-0.377-2.26l-0.226-0.452l-0.151-0.678l-0.215-0.054l-0.161-0.323
		l-0.565,0.141l-0.565-0.141l-0.377,0.377v2.26l0.377,0.377l0.753,0.753l0.377,1.883h-0.753l-1.507,1.13l-3.013,0.753l-1.507,1.13
		l-1.883,1.883l-4.52,1.883l-4.143,2.637l-4.52,2.26h-3.766l-1.31,1.965l-2.306,1.048l-2.285,0.816l-1.726,0.173l-1.412-0.235
		l-1.507-3.39l-1.507-2.26v-3.766l1.13-1.883l4.52-1.883l1.883-1.883l0.377-3.39l2.636-1.883l3.39-1.883l3.578-1.695l2.825-1.318
		l-0.006-0.017l0.759-0.36l4.896-4.52l2.26-1.507l1.883-1.13l3.39-1.507l1.067-0.502l1.569-0.628l0.396-0.297l3.37-1.586
		l0.072-0.054l0.682-0.323l2.69-2.152l0.323-0.108l2.411-2.109l2.486-2.034l4.143-4.52l0.753-1.507l1.883-0.377l1.507,1.13
		l2.637,0.377l2.637-1.13l1.68-1.069l0.204-0.061l2.26-1.507l1.883-1.507l1.883-1.507l3.013-1.507l0.538-0.43l0.592-0.323
		l0.056-0.195l0.697-0.558l0.161-0.269l0.215-0.108v-0.251l1.883-3.139l3.013-0.377l1.13-0.753l0.145-0.203l0.232-0.174l0.565-0.942
		l0.942-1.318l0.935-1.714l2.455-2.805l10.546-0.377l1.883,1.507l4.52,3.39l1.534,1.116l-0.028,0.014l2.637,1.883l2.637,0.377
		v-0.753l-1.507-1.507l-0.603-0.241l-4.294-3.149l-1.507-1.883l1.507-0.753l0.377-1.507l-2.637-0.753l0.377-3.013l1.883-3.766
		l1.883-1.883h3.766h4.896l1.13-0.377l0.377-1.507l-0.753-0.753l-0.753-0.188v-0.188l-2.26-0.377l1.507-2.637l0.377-1.13l1.13-3.39
		v-6.026l-1.13-2.26v-4.143h0.753l0.837-0.628l2.104-1.148l6.098-2.744l1.478-0.782l0.782-0.348l-0.077-0.026l1.535-0.813
		l0.802-0.292l1.883-1.13l3.766-2.26l0.685-0.411l0.068,0.034l3.013-1.883l4.52-0.377l0.753-0.377l3.39-2.26L745.386,175.141z
		 M489.265,618.456l0.377-1.507h2.26v1.507l-0.753,0.377L489.265,618.456z M406.78,166.479l1.13-0.753h2.637v1.13l-1.13,0.753
		l-2.637-0.377V166.479z M247.834,170.998l1.883,0.377l0.753,1.883l-1.883,0.377l-1.13-1.507L247.834,170.998z M501.318,623.352
		l0.377-0.377h0.377l0.377,1.883l-1.13,0.377V623.352z M589.83,262.9l-0.377-1.883l0.753-0.753h2.26l0.753,0.377v1.507l-1.13,1.13
		L589.83,262.9z M590.584,250.094l1.13-1.507l2.26-1.883l3.39-1.883h3.39l0.377,0.377l0.377,1.507l-3.39,3.013l-4.52,2.26
		l-2.637-0.377L590.584,250.094z M618.832,260.64l-0.753,0.753l-5.964,3.139l-5.336,2.511l-3.013,0.377v-1.507l1.883-3.013
		l3.013-2.26l1.356-1.055l1.657-1.205l0.377-0.377l0.753-0.377l0.188-0.565l0.565-0.565l0.377-0.377l1.883-3.013l0.151-0.377
		l0.226-0.377l0.731-1.219l0.022,0.089l0.377-0.753l1.808-3.013l1.515-1.684l1.95-1.706v-0.753h0.753l1.13-1.13l0.753-0.753v-3.39
		l2.26-3.013l0.041-0.151l0.712-0.979l1.507-3.766l1.507-1.13h2.637l1.507-0.377l1.507-1.883l0.251-0.377l0.879-1.13l0.188-0.471
		l0.942-1.412v-1.507v-1.883h0.753l0.377-0.188l1.13-0.188l2.637-1.507l6.78-5.273h1.883l4.52,4.52h1.883l3.39-1.507l8.286,1.13
		l-0.377,1.13l-1.507,1.507l-1.614,1.291l-0.646,0.215l-4.143,3.013l-0.027,0.045l-1.48,1.085l-4.52,4.52l-3.766,3.39l-4.143,0.753
		l-1.883,0.753l-0.377,0.377l-0.377,0.377l-0.753,0.377v0.377l-0.377,0.377l-1.086,0.775l-0.044-0.022l-0.628,0.502l-0.879,0.628
		l-0.753,0.678l-1.507,1.205l-0.753,0.829l-0.753,0.678l-1.233,1.507l-1.027,1.13l-0.161,0.323l-0.969,1.184l-7.91,7.91l-4.143,3.39
		l-4.057,3.433L618.832,260.64z M114.178,334.679l1.076-1.345l-0.377-4.52l2.26-2.637l2.26-0.753v4.896l-1.412,2.825l-0.471,0.188
		l-1.977,2.637h-1.789L114.178,334.679z M445.951,610.923l-2.26,0.377v-2.26v-0.377l1.883-4.896l1.13-4.143l-0.377-6.026
		l-0.377-0.942v-0.188l-0.377-0.753l-1.13-0.377v-1.13l1.507-0.753h3.013l1.13,1.13l2.637-0.377l1.13-0.377h3.39v1.13l-0.753,0.753
		l-2.583,3.551l-0.43,0.215l-1.13-0.753l-1.883-1.883l-1.13-0.377l-0.753,0.753l0.377,3.39l1.883,1.507l3.766,0.753l1.13,1.507
		l0.35,2.798l-0.726,0.969l-5.273,4.143L445.951,610.923z M601.883,502.072l-0.753,1.883l-1.883,1.883l-1.883,0.377v-0.753
		l1.883-1.883l-0.108-0.054l0.95-0.855L601.883,502.072z M609.416,503.578l-1.883,0.377v-1.507l1.507-1.507h1.883l0.377,0.377
		L609.416,503.578z"/>
	<polygon points="379.661,728.813 378.531,726.177 377.778,725.047 377.025,723.54 376.422,723.013 376.271,722.787 
		375.634,722.323 374.011,720.904 373.258,720.527 372.957,720.376 372.128,719.774 370.621,719.209 369.492,718.644 
		368.567,718.438 366.102,717.514 362.712,716.761 361.205,717.137 355.932,717.891 352.166,719.774 351.152,720.585 
		351.036,720.527 349.153,722.034 348.818,722.452 348.399,722.787 348.225,723.193 347.646,723.917 347.646,724.545 
		347.269,725.423 346.516,726.553 346.139,726.93 346.139,727.118 345.763,727.683 345.009,732.58 345.386,735.216 346.139,738.606 
		346.301,738.875 346.516,739.736 346.947,739.951 347.269,740.489 348.173,742.523 348.399,743.126 348.502,743.263 
		348.776,743.879 349.529,744.633 349.706,744.677 351.412,746.139 352.166,748.776 354.049,748.776 356.542,748.942 
		360.075,749.906 361.959,751.412 363.842,751.412 365.348,751.036 371.375,749.529 372.881,748.776 373.258,748.776 
		373.333,748.55 373.635,748.399 375.518,744.256 379.284,741.243 379.342,741.127 379.661,740.866 379.661,740.489 
		380.414,738.983 380.414,735.216 379.661,732.956 	"/>
	<polygon points="619.962,571.751 619.962,574.011 622.975,576.648 625.235,576.648 625.612,575.518 628.248,575.141 
		629.002,574.388 630.508,571.375 630.885,569.491 629.378,569.491 627.872,569.868 621.092,570.621 	"/>
	<polygon points="236.912,616.949 236.158,615.819 234.275,614.689 231.262,614.689 230.132,615.066 228.249,616.949 
		228.249,619.586 229.379,621.469 231.262,622.222 233.522,621.845 236.535,619.209 	"/>
	<polygon points="513.371,114.878 516.007,114.878 517.137,114.125 518.267,112.241 517.891,109.605 516.007,107.721 
		512.994,107.721 512.241,108.098 510.734,109.605 510.734,112.618 511.111,113.371 	"/>
	<polygon points="484.746,686.629 486.629,685.875 488.136,683.616 487.759,681.356 485.876,679.472 482.862,679.472 
		481.733,679.849 480.226,681.732 480.226,683.992 481.356,685.875 	"/>
	<polygon points="641.808,137.1 644.821,137.1 645.574,136.723 646.704,135.593 647.081,133.71 645.951,131.827 643.691,130.697 
		640.678,130.697 638.418,131.827 638.418,134.087 639.924,135.97 	"/>
	<polygon points="713.747,314.501 715.254,316.384 718.644,316.384 720.904,314.501 721.28,312.618 720.527,311.111 
		718.267,309.228 716.007,309.228 715.254,309.605 713.371,311.864 	"/>
	<polygon points="416.572,688.512 413.559,688.135 412.429,688.512 411.676,689.642 411.676,691.902 412.429,693.408 
		415.066,695.292 417.702,695.292 419.586,693.408 419.209,690.772 	"/>
	<polygon points="538.606,128.437 540.866,128.814 543.503,127.307 545.009,125.424 544.633,122.787 543.503,121.657 
		541.243,121.657 538.983,122.787 538.802,123.013 537.853,123.541 536.346,125.424 536.723,126.931 	"/>
	<polygon points="392.467,724.67 390.207,724.67 389.454,725.047 389.303,725.348 388.701,725.8 387.947,727.683 389.077,730.32 
		390.96,731.45 393.22,731.45 393.974,731.073 394.011,730.923 395.48,729.943 395.48,726.553 393.597,724.67 	"/>
	<polygon points="577.778,135.593 579.284,134.087 578.908,132.957 578.343,132.674 578.531,132.58 577.401,132.204 
		577.401,129.567 578.154,127.684 578.154,125.424 576.648,124.671 575.894,125.424 572.881,131.827 572.881,134.087 
		574.764,135.593 	"/>
	<polygon points="341.243,714.501 338.23,712.241 333.71,710.734 331.073,710.734 328.437,711.488 325.047,713.371 322.411,717.514 
		322.787,723.917 323.164,724.294 324.671,725.8 325.8,727.683 326.016,727.952 326.177,728.437 326.554,728.625 327.307,729.567 
		337.1,729.567 337.853,729.19 341.243,725.8 341.62,725.423 343.126,722.41 343.126,718.644 342.75,717.137 	"/>
	<polygon points="525.8,686.252 526.409,687.875 526.554,688.889 526.867,689.098 526.93,689.265 527.199,689.319 527.684,689.642 
		528.248,689.529 528.813,689.642 529.096,689.359 529.567,689.265 529.473,688.983 529.943,688.512 529.943,686.252 
		528.437,681.732 526.554,678.719 524.67,678.719 524.294,681.356 	"/>
	<polygon points="287.382,668.926 284.746,668.926 282.109,670.056 281.733,672.316 282.486,673.446 284.369,674.953 
		287.006,674.953 288.136,674.576 289.642,673.069 289.266,670.433 	"/>
	<polygon points="635.781,508.098 634.275,509.604 633.898,511.864 634.651,513.748 636.535,515.254 638.418,515.254 
		639.548,514.124 640.678,512.241 640.301,509.981 638.418,508.098 	"/>
	<polygon points="364.218,708.474 369.868,711.488 372.505,711.864 373.258,711.111 373.635,709.228 372.128,706.968 
		369.492,701.695 367.985,699.811 365.725,699.435 363.842,699.811 361.959,701.318 361.959,704.331 362.712,706.591 	"/>
	<polygon points="290.396,613.559 288.136,613.559 287.006,614.689 287.382,615.819 287.571,615.819 288.136,616.949 
		288.512,619.586 289.266,620.715 291.902,621.092 293.032,619.962 293.032,619.68 293.409,619.209 293.409,616.949 
		292.279,615.442 	"/>
	<polygon points="630.132,425.612 629.755,424.859 628.248,423.352 626.365,422.975 624.482,424.105 624.482,427.119 
		624.859,427.872 626.742,429.379 629.002,429.379 630.132,428.625 	"/>
	<polygon points="494.539,687.759 493.785,688.135 491.902,690.019 492.279,693.032 493.409,694.915 495.292,695.292 
		496.422,694.162 497.175,691.525 496.798,688.889 496.045,688.135 	"/>
	<polygon points="297.175,697.552 296.045,697.928 294.539,699.435 294.915,701.695 296.799,703.201 299.435,703.201 
		300.565,701.318 300.942,699.058 299.812,697.928 	"/>
	<polygon points="445.951,152.166 450.471,151.789 451.977,151.036 453.107,149.153 453.107,145.01 452.731,143.88 451.601,142.75 
		449.341,141.243 446.328,141.243 444.821,142.373 443.691,145.01 443.691,149.906 444.444,151.413 	"/>
	<polygon points="333.333,90.772 334.84,90.396 334.84,88.512 333.71,86.253 331.073,79.096 329.567,78.72 329.19,79.096 
		329.19,80.98 330.32,84.746 	"/>
	<polygon points="645.574,458.004 646.328,457.627 647.457,455.744 647.081,454.237 645.574,452.731 643.314,452.731 
		641.431,454.237 641.431,456.874 642.938,458.004 	"/>
	<polygon points="540.49,670.81 537.853,670.81 536.723,671.94 537.1,674.199 538.983,676.083 540.866,676.459 542.373,674.953 
		541.996,671.94 	"/>
	<polygon points="198.87,549.529 197.74,548.776 195.48,548.776 194.727,549.152 194.35,549.404 192.091,550.659 191.62,551.224 
		191.337,551.412 190.835,552.166 190.207,552.919 190.173,553.159 189.831,553.672 189.948,554.732 189.831,555.555 190.12,556.28 
		190.207,557.062 190.294,556.714 190.584,557.439 192.467,557.062 197.74,554.802 199.247,552.919 199.247,550.282 198.87,549.906 
			"/>
	<polygon points="276.836,650.094 275.868,650.847 275.706,650.847 273.446,652.731 273.07,654.237 274.576,655.367 
		277.966,654.614 279.849,653.107 279.849,651.224 278.719,650.094 	"/>
	<polygon points="636.158,459.887 635.405,460.64 635.028,462.9 636.535,464.783 639.171,465.16 640.301,464.03 640.678,461.77 
		639.171,459.887 	"/>
	<polygon points="328.06,665.16 323.917,668.173 323.541,669.68 325.424,671.186 327.684,670.433 329.944,667.043 330.32,665.16 
		329.19,664.407 	"/>
	<polygon points="500.188,100.189 500.188,102.825 500.565,103.39 500.565,103.578 500.942,103.955 502.825,103.578 
		502.825,101.695 502.482,101.182 502.448,100.942 502.297,100.904 501.318,99.435 503.201,96.799 503.201,92.656 502.825,91.902 
		500.188,89.266 497.552,88.889 497.175,89.266 496.045,91.526 496.045,97.552 497.928,99.435 	"/>
	<polygon points="216.573,549.152 218.456,548.399 218.833,543.879 217.326,543.503 213.559,545.009 213.183,546.139 
		213.559,547.269 	"/>
	<polygon points="760.828,330.32 756.685,331.827 753.672,332.203 750.282,332.58 748.776,333.71 748.399,336.347 750.282,337.853 
		752.542,337.853 754.049,337.1 755.555,334.463 759.322,333.71 761.958,332.203 762.712,330.697 	"/>
	<polygon points="618.832,672.316 616.572,669.303 615.066,668.55 615.819,671.94 616.572,673.446 619.962,676.836 621.845,677.589 
		622.222,676.459 620.715,674.199 	"/>
	<polygon points="717.514,243.691 718.644,244.445 722.787,246.704 725.423,248.964 726.93,248.588 726.553,247.081 724.67,245.951 
		721.28,243.315 717.891,242.185 	"/>
	<polygon points="651.224,144.633 651.224,146.516 652.731,148.776 654.99,148.776 655.744,148.399 655.744,145.386 654.237,143.88 
		651.977,143.88 	"/>
	<polygon points="238.418,656.497 236.535,658.004 236.535,660.263 238.042,661.393 239.925,661.017 241.055,659.887 
		241.431,658.004 240.678,656.874 	"/>
	<polygon points="442.185,654.237 444.068,653.86 444.444,651.601 443.691,648.964 441.808,648.587 440.301,650.471 
		441.055,653.107 	"/>
	<polygon points="636.911,311.488 637.288,309.981 636.158,308.475 632.768,308.475 631.262,309.981 632.392,311.864 
		636.535,311.864 	"/>
	<polygon points="642.938,416.949 641.054,418.079 641.431,420.716 643.691,421.469 645.574,420.339 645.951,418.456 
		645.198,417.326 	"/>
	<polygon points="135.97,419.962 137.1,419.209 137.1,417.326 135.97,415.819 134.087,414.689 132.957,415.819 132.957,418.079 
		134.087,419.962 	"/>
	<polygon points="749.906,352.542 745.386,352.542 744.256,352.919 742.373,354.426 742.749,356.309 745.386,357.439 
		746.516,358.569 748.399,358.569 749.529,357.062 752.919,355.556 753.672,354.426 753.295,353.672 	"/>
	<polygon points="723.54,322.034 723.54,323.917 724.294,324.671 726.93,325.047 728.06,324.294 728.06,321.657 727.683,321.281 
		725.423,320.904 	"/>
	<polygon points="684.369,712.617 682.862,714.124 682.862,718.644 683.239,719.021 685.122,718.644 685.875,714.877 
		685.499,712.994 	"/>
	<polygon points="435.028,632.768 435.782,634.275 438.418,636.535 440.301,636.535 441.808,635.028 441.808,632.015 
		441.055,631.262 440.678,629.378 442.561,627.872 442.185,625.612 440.678,624.105 438.795,623.729 437.665,624.859 
		435.782,628.248 435.794,628.287 435.405,629.002 	"/>
	<polygon points="623.352,191.337 621.845,191.337 620.715,191.337 616.572,192.844 616.321,193.095 615.066,193.597 
		613.182,195.104 611.676,198.117 608.663,200.377 606.026,203.013 606.403,204.52 607.909,204.52 608.663,202.637 609.416,202.637 
		612.158,201.16 612.429,201.13 613.088,200.659 614.312,200 614.815,199.426 615.066,199.247 615.124,199.073 616.656,197.322 
		618.581,196.359 621.845,195.104 622.552,194.539 622.975,194.35 622.842,194.306 623.729,193.597 	"/>
	<polygon points="638.795,535.97 637.665,534.84 635.405,534.84 634.275,535.97 634.651,537.853 636.535,538.983 638.418,538.606 	
		"/>
	<polygon points="452.354,750.282 451.977,751.789 454.614,757.062 456.497,757.439 456.497,755.932 453.861,750.659 	"/>
	<polygon points="724.67,433.522 723.164,432.015 720.904,432.015 720.15,432.392 719.774,433.898 721.657,435.782 724.294,435.405 
			"/>
	<polygon points="628.625,383.804 630.885,384.181 630.885,382.674 629.811,382.06 629.755,381.921 629.465,381.863 
		628.248,381.168 628.111,381.133 627.495,380.791 626.742,380.791 625.235,380.414 623.729,379.661 624.105,378.154 
		624.174,377.67 624.482,377.401 624.482,375.518 623.352,374.388 621.092,374.011 620.339,374.388 620.188,374.614 
		618.832,375.518 618.456,377.401 619.209,378.531 619.586,380.791 617.702,381.544 617.326,381.921 615.819,382.674 
		615.819,384.557 616.572,385.687 619.586,388.324 624.105,389.454 626.742,389.454 628.248,388.324 628.248,386.441 
		627.872,386.064 625.235,383.051 625.989,383.051 	"/>
	<polygon points="590.207,145.763 590.584,143.126 589.83,141.996 587.947,141.62 587.194,141.996 586.441,144.256 587.947,146.14 	
		"/>
	<polygon points="687.801,691.4 687.759,691.149 687.382,690.772 686.629,689.642 686.158,689.548 685.875,689.265 682.486,689.265 
		680.979,690.772 680.979,693.408 681.356,694.162 683.616,695.668 685.875,695.668 686.629,695.292 687.382,694.915 
		688.135,693.408 688.01,692.655 688.135,691.902 	"/>
	<polygon points="579.284,644.068 577.401,643.691 577.024,645.574 577.778,646.328 580.038,647.834 582.297,648.211 
		582.674,647.457 582.297,646.328 	"/>
	<polygon points="542.373,67.797 543.503,67.044 543.879,64.784 542.749,63.277 540.866,63.277 540.113,64.03 540.113,66.667 
		540.866,67.42 	"/>
	<polygon points="417.702,83.616 419.209,82.486 419.586,80.603 416.949,78.343 415.819,74.953 414.689,74.577 414.689,76.083 
		414.904,76.729 415.066,78.343 413.936,80.226 413.936,82.863 415.819,83.993 	"/>
	<polygon points="688.512,484.369 687.759,485.499 688.135,487.382 690.395,488.136 691.902,487.006 691.902,484.746 
		691.525,484.369 689.642,483.992 	"/>
	<polygon points="648.964,380.414 647.457,378.908 643.691,375.895 640.301,374.765 637.288,373.258 632.392,373.258 
		630.885,374.388 630.885,376.648 631.638,379.661 632.768,380.791 635.781,381.921 644.444,382.298 645.198,382.674 
		648.587,383.051 649.341,381.921 	"/>
	<polygon points="660.263,160.452 661.393,159.699 661.77,157.816 661.017,156.686 658.757,156.309 658.004,157.062 
		657.627,158.946 658.757,160.076 	"/>
	<polygon points="498.305,62.524 498.305,61.017 498.305,56.497 496.422,56.121 496.045,56.874 496.045,59.511 496.798,62.524 	"/>
	<polygon points="106,504.762 105.838,503.955 105.462,503.578 102.448,500.565 99.059,499.812 96.422,500.188 94.162,500.942 
		93.158,501.611 92.656,501.695 91.902,502.448 90.772,507.721 93.409,511.111 95.669,512.241 95.83,512.187 96.799,512.618 
		101.318,512.618 103.202,511.488 103.327,511.362 104.332,510.734 104.897,509.793 105.085,509.604 105.16,509.353 
		105.462,508.851 105.763,507.345 106.215,505.838 106.14,505.461 106.215,505.085 	"/>
	<polygon points="270.433,632.768 268.927,633.898 269.303,636.535 270.81,637.288 272.316,636.535 272.693,633.898 
		272.316,633.521 	"/>
	<polygon points="239.925,154.426 241.055,152.543 240.301,150.659 238.418,150.283 237.288,151.036 236.912,152.543 
		238.042,154.049 	"/>
	<polygon points="131.074,420.716 130.32,421.469 130.32,423.729 131.45,424.859 133.71,424.859 134.087,424.482 134.087,422.599 
		132.957,421.092 	"/>
	<polygon points="679.849,292.655 679.096,296.045 679.849,297.175 681.732,296.799 682.862,294.539 682.109,292.655 
		680.602,292.279 	"/>
	<polygon points="138.23,198.87 138.607,196.987 137.853,195.857 135.217,195.857 134.84,196.234 134.463,198.117 136.347,199.624 	
		"/>
	<polygon points="430.132,615.066 430.885,615.819 432.392,616.196 433.898,615.066 433.898,613.182 433.145,612.429 
		430.508,612.429 	"/>
	<polygon points="480.979,160.829 482.862,158.569 482.486,156.686 480.979,156.309 479.849,156.686 479.096,158.569 
		479.473,160.452 	"/>
	<polygon points="720.527,209.793 718.644,209.416 718.644,210.923 721.28,214.313 723.54,214.313 723.54,212.806 722.034,212.053 	
		"/>
	<polygon points="693.408,467.043 693.032,468.173 693.032,473.446 692.655,474.2 692.279,476.459 693.408,477.213 696.422,477.589 
		697.552,476.836 699.435,474.953 700.188,472.316 700.941,471.186 703.955,468.55 704.331,465.913 703.578,465.16 700.941,465.537 
		699.058,465.16 698.682,463.277 701.318,462.147 702.071,461.394 702.071,459.51 699.811,457.25 698.305,454.84 697.552,453.484 
		697.175,453.358 695.668,451.601 693.785,451.224 691.902,452.731 690.395,454.991 689.265,454.991 686.629,453.484 
		684.369,453.484 682.862,454.237 681.356,456.12 681.356,459.134 682.486,460.64 685.875,462.9 689.642,463.277 691.149,462.147 
		693.408,462.147 694.162,462.523 696.045,464.03 696.045,465.913 	"/>
	<polygon points="681.732,503.955 682.109,502.072 680.979,500.942 678.719,500.942 677.966,502.825 679.096,504.331 
		681.356,504.331 	"/>
	<polygon points="679.472,408.663 677.966,407.91 676.459,409.04 675.329,410.923 677.213,412.806 680.979,413.183 682.862,412.429 
		682.109,411.676 	"/>
	<polygon points="431.638,135.593 431.638,137.477 434.275,141.243 435.405,141.243 435.405,139.737 433.898,136.347 
		432.015,135.217 	"/>
	<polygon points="286.252,746.139 285.499,746.516 285.122,748.776 285.876,749.529 287.382,749.906 288.512,749.152 
		288.889,747.269 288.136,746.516 	"/>
	<polygon points="309.228,618.079 309.153,618.531 308.851,618.832 308.475,620.715 304.332,620.339 303.955,622.222 
		305.838,623.352 306.968,624.482 309.228,624.482 309.605,623.729 309.228,620.715 309.981,620.715 312.618,619.209 
		312.994,617.326 310.735,616.949 	"/>
	<polygon points="603.39,453.861 604.143,454.614 606.026,455.367 607.533,454.991 607.533,453.107 606.779,452.354 604.52,451.977 
		603.766,452.354 	"/>
	<polygon points="591.337,680.226 590.207,679.472 589.83,681.356 590.96,683.616 591.714,686.629 592.844,687.005 593.597,685.499 
		592.467,683.616 	"/>
	<polygon points="706.591,659.887 704.331,659.134 703.201,657.627 701.318,657.25 697.175,658.38 694.162,662.9 694.162,665.913 
		694.538,667.42 695.668,668.926 697.175,670.056 697.363,670.056 697.928,670.433 701.695,670.723 701.695,670.81 702.825,670.81 
		703.955,669.303 705.461,668.55 706.214,668.173 706.591,666.666 707.721,664.783 706.968,662.9 	"/>
	<polygon points="724.67,221.846 722.41,221.469 721.28,222.222 721.28,225.236 722.034,225.989 723.205,226.156 722.787,226.365 
		724.67,226.365 726.93,224.106 729.943,223.729 729.943,222.976 727.307,222.599 	"/>
	<polygon points="597.363,702.448 597.363,703.578 600,708.474 601.506,708.851 601.506,707.344 598.87,703.201 	"/>
	<polygon points="690.772,306.215 689.642,308.098 689.265,310.358 690.395,311.864 693.032,312.241 694.915,310.358 
		694.915,307.721 693.785,306.215 691.525,305.838 	"/>
	<polygon points="626.365,514.501 625.989,516.007 627.118,517.137 629.755,516.761 630.132,514.878 629.378,514.124 
		627.118,514.124 	"/>
	<polygon points="302.448,605.273 302.072,603.39 300.188,603.013 299.058,604.143 299.435,606.026 300.942,606.779 	"/>
	<polygon points="285.876,73.07 285.876,71.563 283.616,67.797 282.109,67.044 281.733,68.174 284.369,72.693 	"/>
	<polygon points="661.017,481.356 662.9,481.356 663.277,479.473 662.523,478.343 660.64,477.589 660.263,477.966 659.887,479.473 	
		"/>
	<polygon points="328.437,129.944 328.814,127.684 328.06,126.931 326.177,126.931 325.8,127.307 325.8,129.944 326.93,130.697 	"/>
	<polygon points="640.301,603.766 641.808,604.143 641.808,602.636 638.795,599.623 636.911,599.623 636.911,600.377 
		638.418,601.506 	"/>
	<polygon points="144.256,578.908 143.88,580.414 145.01,580.414 148.399,577.778 148.776,576.271 147.269,576.271 	"/>
	<polygon points="677.589,551.036 679.472,551.789 679.472,550.659 677.589,548.022 675.706,547.269 675.329,548.776 
		676.083,549.906 676.836,549.906 676.836,550.659 	"/>
	<polygon points="647.52,397.05 647.834,396.987 647.697,396.165 647.834,395.48 647.565,395.373 647.457,394.727 646.704,394.727 
		646.328,393.597 643.314,391.337 639.924,390.96 639.548,392.09 641.808,393.974 642.938,396.234 644.143,396.685 644.444,396.987 
		645.198,397.081 645.951,397.363 646.53,397.248 647.457,397.363 	"/>
	<polygon points="630.132,564.972 629.755,563.842 627.118,563.842 626.365,564.595 626.742,566.478 628.248,566.855 	"/>
	<polygon points="651.601,534.463 652.354,533.71 652.354,531.827 651.977,531.45 650.094,531.073 649.341,531.827 649.341,533.71 
		649.717,534.087 	"/>
	<polygon points="684.746,400.377 685.122,398.493 684.369,397.363 682.486,397.363 682.109,397.74 682.109,400 682.862,400.753 	
		"/>
	<polygon points="300.942,640.301 299.812,640.678 298.682,641.808 299.812,642.938 302.072,642.561 303.578,641.054 
		303.202,640.301 	"/>
	<polygon points="453.861,633.898 453.861,632.015 453.484,631.638 451.224,631.638 450.471,632.768 450.847,634.275 
		452.731,634.651 	"/>
	<polygon points="559.699,117.138 560.452,116.384 560.828,114.878 560.075,114.125 558.192,114.125 557.439,114.878 
		557.815,116.761 	"/>
	<polygon points="708.474,461.017 707.344,462.147 707.344,464.03 708.474,465.16 710.734,465.537 711.864,464.783 712.241,463.277 
		710.358,461.394 	"/>
	<polygon points="643.314,299.812 643.691,297.928 640.678,297.928 639.548,299.058 639.924,300.565 	"/>
	<polygon points="695.668,509.981 696.422,509.228 696.422,507.345 696.045,506.968 694.538,506.591 693.785,506.968 
		693.408,508.851 694.162,509.604 	"/>
	<polygon points="709.981,500.188 709.228,500.565 709.228,502.448 709.604,502.825 711.488,503.201 712.241,502.448 
		712.241,500.565 711.864,500.188 	"/>
	<polygon points="115.254,315.254 115.631,313.748 114.878,312.618 108.475,312.618 108.098,314.124 109.605,314.878 	"/>
	<polygon points="452.354,655.367 453.861,654.99 453.107,650.094 451.977,649.717 451.601,650.094 451.977,654.99 	"/>
	<polygon points="583.427,199.624 584.934,201.13 586.441,200.377 586.441,198.117 584.181,197.74 583.427,198.117 	"/>
	<polygon points="702.448,477.966 702.448,480.979 703.201,482.109 704.708,482.862 706.214,482.109 706.591,480.226 
		705.085,478.343 702.825,477.589 	"/>
	<polygon points="673.069,291.149 671.563,290.772 671.186,291.902 670.81,295.669 671.94,295.669 672.693,293.785 	"/>
	<polygon points="650.094,114.125 651.977,112.618 652.731,110.735 651.224,110.358 649.717,111.865 648.964,113.748 	"/>
	<polygon points="212.43,553.672 214.689,553.672 215.443,552.919 215.066,551.412 213.559,551.036 212.053,551.789 	"/>
	<polygon points="618.832,545.763 618.456,547.646 619.962,550.659 621.092,550.282 620.339,546.516 	"/>
	<polygon points="217.326,146.516 219.586,149.153 222.976,153.296 224.859,155.179 228.249,157.062 231.639,159.322 
		236.912,162.712 238.042,162.335 238.418,159.699 237.288,158.946 233.145,155.932 228.625,152.919 225.989,150.659 
		223.729,149.153 221.092,146.893 219.586,143.88 218.456,141.996 217.853,141.695 218.079,141.62 216.949,141.243 216.196,141.996 
		216.573,143.126 	"/>
	<polygon points="612.053,678.719 612.053,680.602 613.182,683.239 614.689,683.992 614.689,682.862 613.559,679.472 	"/>
	<polygon points="749.906,181.544 749.529,183.051 750.282,183.428 751.412,182.298 753.672,179.661 751.789,179.285 	"/>
	<polygon points="306.591,657.627 305.461,658.757 305.461,661.393 305.838,661.77 307.345,662.147 309.228,660.263 
		309.228,658.004 308.851,657.627 	"/>
	<polygon points="635.028,558.569 634.651,560.452 636.535,560.828 637.665,560.075 637.288,558.192 635.405,558.192 	"/>
	<polygon points="671.563,410.169 670.81,409.416 668.926,409.416 668.55,411.299 669.68,412.053 671.563,411.676 	"/>
	<polygon points="487.759,154.802 488.136,152.919 486.629,152.543 485.499,153.296 485.122,155.179 485.876,155.556 	"/>
	<polygon points="186.817,618.456 186.441,619.962 187.947,619.962 190.961,616.572 189.831,616.196 	"/>
	<polygon points="729.567,540.113 726.553,539.736 725.8,538.983 723.917,538.606 720.527,539.736 718.678,542.818 718.644,542.749 
		718.267,543.503 717.891,546.893 719.397,549.529 721.28,551.412 722.787,551.412 727.307,551.412 728.437,549.152 
		729.943,548.399 729.692,548.315 730.697,547.646 730.942,544.698 731.073,544.633 731.073,543.126 730.32,542.749 	"/>
	<polygon points="643.691,429.379 643.691,431.262 644.821,432.015 646.328,431.262 645.951,429.379 644.444,428.625 	"/>
	<polygon points="502.448,143.126 500.942,143.503 499.435,145.01 499.058,145.386 499.184,146.265 499.058,146.893 499.36,147.495 
		499.435,148.023 499.686,148.148 500.188,149.153 502.825,150.659 505.461,150.659 507.721,148.399 507.345,146.516 
		505.537,144.407 505.461,144.256 505.393,144.239 505.085,143.88 504.261,143.644 504.331,143.503 	"/>
	<polygon points="713.371,449.717 712.994,450.094 712.994,451.977 713.371,452.354 715.254,452.354 715.631,451.977 
		715.254,450.094 	"/>
	<polygon points="165.349,239.548 164.595,237.665 163.089,237.288 162.712,237.665 162.712,239.548 163.089,239.925 
		164.972,240.301 	"/>
	<polygon points="366.102,139.36 365.725,141.996 366.102,142.373 366.478,142.75 368.738,143.126 370.245,141.996 370.245,140.113 
		369.492,138.983 366.855,138.607 	"/>
	<polygon points="280.226,104.332 280.226,102.448 279.849,102.072 278.343,101.695 277.59,103.202 278.719,104.708 	"/>
	<polygon points="202.637,676.459 201.883,677.966 203.013,678.343 204.897,677.589 205.65,676.083 203.767,675.706 	"/>
	<polygon points="526.177,651.224 526.177,648.964 525.8,648.211 524.67,647.834 524.294,648.211 524.294,650.847 524.67,651.224 	
		"/>
	<polygon points="710.358,476.459 708.474,476.083 708.098,476.459 707.721,478.343 708.474,478.719 710.358,478.343 	"/>
	<polygon points="663.277,464.783 663.653,467.043 665.536,467.043 665.913,466.667 665.536,464.783 663.653,464.407 	"/>
	<polygon points="96.422,556.685 96.045,555.179 94.539,554.802 93.786,555.179 93.786,557.062 95.669,557.439 	"/>
	<polygon points="243.691,92.279 243.315,90.019 241.431,89.642 241.431,91.902 242.185,92.656 	"/>
	<polygon points="576.648,670.81 576.271,671.186 576.271,673.446 577.401,674.953 578.908,674.576 577.401,671.563 	"/>
	<polygon points="676.459,134.087 675.329,132.957 673.069,134.087 673.069,135.593 675.329,135.217 	"/>
	<polygon points="250.471,657.25 250.848,658.757 252.731,658.38 253.107,656.497 251.224,656.12 	"/>
	<polygon points="653.107,687.382 653.86,689.265 656.497,691.525 656.874,690.395 654.99,688.135 	"/>
	<polygon points="558.192,682.109 558.018,682.051 555.932,680.226 552.166,679.472 550.799,679.863 550.659,679.849 
		549.529,680.226 547.269,682.109 546.139,685.122 546.516,688.135 547.646,690.019 548.399,690.646 548.776,691.149 
		549.241,691.348 549.906,691.902 552.542,693.032 555.932,692.655 557.439,691.525 559.322,686.252 559.322,683.616 
		558.945,682.862 	"/>
	<polygon points="670.433,444.068 673.446,441.808 673.069,439.171 671.563,435.782 668.173,433.898 665.536,433.898 
		663.277,435.405 663.051,435.782 662.9,435.782 662.523,436.158 662.429,436.817 662.147,437.288 662.254,438.041 662.147,438.795 
		662.482,439.632 662.523,439.925 662.665,440.089 662.9,440.678 663.756,441.363 664.783,442.561 667.42,444.068 	"/>
	<polygon points="413.183,116.384 413.559,116.761 415.066,116.384 415.066,112.618 414.689,111.488 413.559,110.735 
		412.806,111.488 412.806,115.254 413.183,116.008 	"/>
	<polygon points="168.362,595.857 167.985,596.233 168.362,598.117 170.245,598.117 170.622,597.74 170.245,596.233 	"/>
	<polygon points="645.198,679.849 645.198,680.979 646.328,682.109 648.211,682.109 648.587,681.732 647.081,680.226 	"/>
	<polygon points="307.721,640.301 307.345,638.795 305.838,638.418 305.461,638.795 305.085,640.301 306.215,641.054 	"/>
	<polygon points="706.968,154.426 707.721,152.919 705.838,152.543 704.708,153.673 705.085,154.802 	"/>
	<polygon points="416.949,736.723 416.572,738.606 417.326,740.489 418.456,740.489 418.456,738.983 417.702,736.723 	"/>
	<polygon points="173.258,636.911 172.882,638.418 175.518,638.418 175.895,636.535 173.635,636.535 	"/>
	<polygon points="719.774,392.467 720.904,393.597 722.787,393.597 722.787,392.467 722.034,391.714 720.15,391.337 	"/>
	<polygon points="658.38,306.215 658.757,304.332 656.497,304.332 656.12,306.215 656.874,306.591 	"/>
	<polygon points="734.086,191.714 732.203,193.597 733.333,193.974 735.97,192.091 736.346,190.961 735.216,190.961 	"/>
	<polygon points="245.575,700.188 245.951,701.318 248.211,700.941 248.211,699.435 246.328,699.058 	"/>
	<polygon points="111.865,585.311 111.912,585.326 109.228,586.817 108.851,588.324 112.618,588.324 117.514,584.934 
		117.891,583.427 116.008,583.051 	"/>
	<polygon points="102.448,524.67 106.215,524.67 106.215,523.54 102.072,523.54 	"/>
	<polygon points="111.488,372.128 112.995,372.128 113.371,370.621 112.618,369.868 111.111,369.492 	"/>
	<polygon points="733.71,308.475 733.333,310.358 734.463,310.735 735.97,309.981 735.593,308.475 	"/>
	<polygon points="671.186,699.811 669.303,701.695 669.68,703.578 669.962,703.672 670.056,703.955 672.316,704.331 
		673.823,703.201 673.823,700.941 673.069,700.188 	"/>
	<polygon points="183.051,637.665 183.428,639.548 184.934,639.548 185.311,637.665 183.804,636.911 	"/>
	<polygon points="318.267,634.275 317.891,636.158 319.021,636.911 320.151,636.158 319.774,634.275 	"/>
	<polygon points="399.623,626.742 399.247,627.118 399.623,628.625 401.507,629.002 401.883,628.248 401.507,627.118 	"/>
	<rect x="712.787" y="321.074" transform="matrix(0.1961 -0.9806 0.9806 0.1961 257.9897 958.7648)" width="1.921" height="1.921"/>
	<polygon points="663.214,136.409 663.277,136.723 664.281,136.623 664.783,136.723 664.587,136.592 667.043,136.347 
		668.173,134.84 670.056,134.087 671.186,132.58 671.563,131.074 670.433,130.32 667.42,129.944 666.666,130.697 666.559,131.074 
		666.29,131.074 665.913,133.334 663.277,134.463 663.235,134.673 662.9,134.84 663.051,135.593 662.9,136.347 	"/>
	<polygon points="261.017,118.268 260.264,117.514 258.757,117.138 258.757,119.021 259.134,119.398 260.64,119.774 	"/>
	<polygon points="486.252,73.07 487.006,75.33 488.512,75.33 488.512,73.823 487.759,70.057 487.006,68.174 485.499,67.797 
		485.122,69.303 486.252,72.919 	"/>
	<polygon points="572.505,205.273 574.011,204.897 574.011,203.013 572.881,202.637 571.751,203.767 	"/>
	<polygon points="648.964,101.318 648.211,101.318 647.457,102.072 647.081,104.708 648.587,103.955 	"/>
	<polygon points="113.748,570.998 112.241,570.998 111.865,571.375 111.488,573.258 113.371,572.881 	"/>
	<polygon points="126.177,407.533 126.554,406.78 122.411,406.78 122.034,407.91 125.047,407.91 	"/>
	<polygon points="656.874,427.872 657.627,429.002 659.134,428.625 658.38,426.742 656.874,426.365 	"/>
	<polygon points="332.203,688.889 331.827,691.149 332.58,691.149 333.71,690.019 334.087,688.512 332.58,688.512 	"/>
	<polygon points="564.218,196.234 561.958,196.234 561.205,196.61 561.205,197.74 562.712,199.624 564.595,200 565.348,199.247 
		565.348,197.364 564.972,196.987 564.972,196.61 	"/>
	<polygon points="172.505,640.678 174.011,641.054 174.765,640.301 174.765,639.171 172.505,639.171 	"/>
	<polygon points="580.038,627.872 579.661,628.248 579.661,629.378 581.544,629.755 581.921,628.248 	"/>
	<polygon points="739.359,441.808 740.113,443.314 741.619,442.938 741.619,441.431 740.113,441.055 	"/>
	<polygon points="413.183,668.926 412.806,667.043 411.299,667.043 410.923,668.173 412.053,669.303 	"/>
	<polygon points="203.164,606.026 203.767,607.533 205.273,607.156 205.273,604.143 204.897,603.39 202.637,603.013 202.26,603.766 
		203.013,606.026 	"/>
	<polygon points="730.697,460.64 731.45,462.9 732.58,463.277 732.956,461.77 731.073,460.264 	"/>
	<polygon points="56.497,440.301 56.121,442.561 57.627,442.185 58.004,439.925 56.874,439.925 	"/>
	<polygon points="652.731,226.742 652.398,226.521 653.484,226.365 655.367,224.482 654.614,222.976 652.354,222.599 
		651.224,222.976 650.094,224.106 650.094,225.989 650.847,226.742 	"/>
	<polygon points="647.457,584.934 647.081,583.804 644.821,583.427 644.821,584.557 645.951,585.311 	"/>
	<polygon points="123.164,448.211 123.164,449.341 125.047,449.717 125.424,448.211 123.917,447.834 	"/>
	<polygon points="196.987,615.819 198.494,615.819 198.87,614.312 197.364,613.936 	"/>
	<polygon points="154.802,574.764 155.179,576.271 157.062,576.271 157.439,575.894 157.062,574.764 	"/>
	<polygon points="656.12,317.514 654.99,317.138 654.237,317.514 653.86,319.397 655.367,319.021 	"/>
	<polygon points="366.478,74.953 364.972,74.2 364.595,76.083 366.102,76.46 	"/>
	<polygon points="720.15,679.096 720.15,679.849 721.28,681.356 722.41,681.356 721.657,679.472 	"/>
	<polygon points="87.006,566.102 87.006,567.608 88.512,567.985 88.889,566.478 87.759,565.725 	"/>
	<polygon points="116.384,518.644 116.384,520.151 117.891,520.527 118.268,519.021 117.138,518.267 	"/>
	<polygon points="632.015,473.446 630.885,473.07 630.132,473.446 630.132,474.576 631.638,475.329 	"/>
	<polygon points="170.998,238.795 169.868,238.418 169.115,238.795 169.115,240.301 170.998,240.301 171.375,239.925 	"/>
	<polygon points="135.217,223.729 133.334,222.599 131.45,222.222 131.45,222.599 133.71,224.106 	"/>
	<polygon points="488.512,118.644 490.019,119.021 490.395,117.514 489.265,116.761 488.512,117.138 	"/>
	<polygon points="329.567,694.538 330.697,694.538 331.45,693.408 331.073,691.902 329.944,693.032 	"/>
	<polygon points="286.252,643.314 286.629,641.808 284.746,641.808 284.369,642.938 	"/>
	<polygon points="59.134,391.337 59.511,392.844 61.394,393.22 60.641,391.714 	"/>
	<polygon points="745.386,377.025 747.269,377.778 747.269,376.271 745.386,375.895 	"/>
	<polygon points="604.143,376.271 605.65,376.271 606.026,374.765 605.273,374.388 604.52,374.765 	"/>
	<rect x="515.419" y="34.44" transform="matrix(0.2425 -0.9701 0.9701 0.2425 356.8346 527.459)" width="1.553" height="1.553"/>
	<polygon points="302.072,630.132 302.072,631.638 303.202,631.638 303.578,630.132 302.448,629.755 	"/>
	<polygon points="607.156,443.314 607.156,441.055 606.403,439.925 606.026,440.678 606.403,443.314 	"/>
	<polygon points="726.553,424.859 726.93,423.352 725.047,423.352 725.047,424.482 	"/>
	<polygon points="237.665,702.825 238.042,703.955 239.548,703.578 239.925,702.448 238.418,702.448 	"/>
	<polygon points="604.143,433.522 605.273,433.898 606.026,432.768 604.52,432.015 	"/>
	<polygon points="439.171,149.529 440.301,149.906 440.678,148.023 439.548,148.023 	"/>
	<polygon points="383.804,144.633 382.298,144.633 382.298,145.763 383.804,146.516 	"/>
	<polygon points="522.787,667.796 523.917,668.173 524.294,666.666 523.164,666.29 	"/>
	<polygon points="498.305,645.951 496.798,645.574 496.422,645.951 496.798,647.081 498.305,647.081 	"/>
	<polygon points="285.876,610.923 285.122,610.546 284.369,610.923 284.369,612.429 285.499,612.429 	"/>
	<polygon points="54.238,496.422 54.614,497.928 55.744,497.928 56.121,497.175 54.991,496.045 	"/>
	<polygon points="695.668,329.567 695.292,331.073 696.422,331.45 696.798,329.944 	"/>
	<polygon points="127.307,220.716 125.424,220.716 125.424,221.469 127.684,221.846 	"/>
	<polygon points="566.855,98.305 565.725,97.929 565.348,99.435 566.855,99.435 	"/>
	<polygon points="151.789,566.478 152.919,566.478 153.296,565.348 152.166,564.972 	"/>
	<polygon points="652.731,259.887 654.237,259.887 654.237,258.757 653.484,258.381 652.731,258.757 	"/>
	<polygon points="735.593,184.181 737.1,184.558 737.1,183.428 735.97,183.051 	"/>
	<polygon points="674.576,130.697 673.823,130.32 673.069,130.697 673.069,131.827 674.576,131.827 	"/>
	<polygon points="293.785,123.917 292.655,123.917 292.655,125.424 294.162,125.047 	"/>
	<polygon points="230.509,714.124 231.639,714.124 232.392,712.617 231.639,712.617 	"/>
	<polygon points="502.825,678.719 501.695,678.719 502.072,680.226 503.201,680.226 	"/>
	<polygon points="426.742,643.314 427.872,643.314 428.249,642.184 426.742,642.184 	"/>
	<rect x="44.979" y="416.354" transform="matrix(0.3162 -0.9487 0.9487 0.3162 -364.39 328.3342)" width="1.191" height="1.191"/>
	<polygon points="574.388,123.164 573.258,123.164 573.258,124.294 574.388,124.671 	"/>
	<polygon points="95.292,597.74 96.045,597.74 96.799,596.233 96.045,596.233 	"/>
	<polygon points="659.887,467.42 661.017,467.42 661.393,466.667 659.887,466.29 	"/>
	<polygon points="679.096,122.034 679.096,123.541 680.226,122.411 	"/>
	<polygon points="584.181,639.548 585.687,639.924 585.687,639.171 584.557,638.795 	"/>
	<polygon points="610.169,467.797 610.546,466.667 609.416,466.29 609.416,467.42 	"/>
	<polygon points="728.813,465.913 728.813,465.16 727.683,464.783 727.307,465.537 	"/>
	<rect x="373.258" y="150.283" width="1.13" height="1.13"/>
	<rect x="572.881" y="706.591" width="1.507" height="0.753"/>
	<polygon points="201.507,699.811 203.013,698.682 201.883,698.305 	"/>
	<polygon points="193.22,545.386 193.22,546.139 194.35,546.516 194.35,545.386 	"/>
	<polygon points="73.823,490.019 74.953,490.019 74.953,488.889 74.2,488.889 	"/>
	<rect x="57.627" y="427.872" width="0.753" height="1.507"/>
	<polygon points="648.964,427.872 647.834,427.495 647.457,428.249 648.587,428.625 	"/>
	<polygon points="660.64,341.62 660.64,342.373 661.77,342.75 661.77,341.62 	"/>
	<polygon points="694.162,259.134 693.408,259.134 693.032,260.264 694.162,260.264 	"/>
	<polygon points="648.211,125.801 648.587,124.294 647.834,124.294 647.457,125.047 	"/>
	<polygon points="334.84,684.369 334.84,683.239 334.087,683.239 333.71,683.992 	"/>
	<polygon points="186.817,633.145 187.571,633.145 187.947,632.392 186.817,632.015 	"/>
	<polygon points="77.966,598.493 79.096,598.493 79.096,597.74 78.343,597.363 	"/>
	<polygon points="724.294,475.329 724.294,474.576 723.54,474.2 723.164,475.329 	"/>
	<polygon points="702.448,370.621 702.825,369.868 701.695,369.492 701.695,370.621 	"/>
	<polygon points="728.813,190.961 728.813,191.714 729.567,192.091 729.943,190.961 	"/>
	<rect x="305.085" y="737.853" width="1.13" height="0.753"/>
	<rect x="206.027" y="569.491" width="1.13" height="0.753"/>
	<rect x="46.328" y="477.966" width="0.753" height="1.13"/>
	<rect x="116.008" y="407.533" width="1.13" height="0.753"/>
	<rect x="61.017" y="403.013" width="1.13" height="0.753"/>
	<polygon points="42.185,308.098 41.055,307.721 41.432,308.851 	"/>
	<rect x="688.512" y="235.782" width="1.13" height="0.753"/>
	<polygon points="620.715,146.516 620.339,147.646 621.469,147.269 	"/>
	<polygon points="524.67,103.955 523.917,103.578 523.54,104.332 524.67,104.708 	"/>
	<rect x="221.846" y="90.772" width="0.753" height="1.13"/>
	<rect x="559.322" y="68.174" width="0.753" height="1.13"/>
	<polygon points="278.343,664.783 279.473,665.16 279.473,664.407 278.719,664.407 	"/>
	<polygon points="516.761,645.574 516.384,645.951 517.514,646.328 517.514,645.574 	"/>
	<polygon points="135.217,506.215 135.97,506.215 135.593,505.085 	"/>
	<polygon points="703.578,223.352 702.448,222.976 702.448,223.729 	"/>
	<polygon points="312.994,110.358 312.618,111.111 313.748,111.111 	"/>
	<rect x="186.817" y="700.565" width="0.753" height="0.753"/>
	<rect x="379.284" y="629.002" width="0.753" height="0.753"/>
	<polygon points="97.929,594.727 99.059,594.727 98.305,594.35 	"/>
	<rect x="159.699" y="491.149" width="0.753" height="0.753"/>
	<rect x="714.877" y="222.976" width="0.753" height="0.753"/>
	<rect x="610.169" y="195.104" width="0.753" height="0.753"/>
	<rect x="510.358" y="118.268" width="0.753" height="0.753"/>
	<rect x="600" y="116.761" width="0.753" height="0.753"/>
	<rect x="262.147" y="105.462" width="0.753" height="0.753"/>
	<polygon points="384.934,714.877 385.311,714.124 384.557,714.124 	"/>
	<polygon points="170.622,587.57 171.375,587.947 170.998,587.194 	"/>
	<polygon points="616.949,374.388 616.949,375.141 617.702,375.141 	"/>
	<polygon points="661.393,368.362 661.017,368.738 661.77,369.115 	"/>
	<polygon points="43.315,296.045 43.315,296.799 44.068,296.422 	"/>
	<polygon points="673.446,258.757 673.823,259.51 674.199,258.757 	"/>
	<polygon points="529.19,100.189 529.19,100.942 529.943,100.942 	"/>
	<polygon points="232.392,83.993 232.392,84.746 233.145,84.746 	"/>
</g>
</svg>
